<svg xmlns="http://www.w3.org/2000/svg" xmlns:xlink="http://www.w3.org/1999/xlink" width="43" height="43.001" viewBox="0 0 43 43.001"><defs><clipPath id="a"><circle cx="21.5" cy="21.5" r="21.5" transform="translate(-0.312 -0.312)" fill="#fff"/></clipPath></defs><g transform="translate(-1138 -1691)"><rect width="43" height="43" rx="21.5" transform="translate(1138 1691)" fill="#f3f3f3"/><g transform="translate(1138.312 1691.313)" clip-path="url(#a)"><g transform="translate(7.038 4.968)"><path d="M104.407,35.7v3.362a.685.685,0,0,1-.685.685H78.713a.685.685,0,0,1-.685-.685V35.7a6.387,6.387,0,0,1,6.388-6.387,3.546,3.546,0,0,0,2.977-1.615,4.026,4.026,0,0,0,.57-2.51l.013-.032a8.48,8.48,0,0,1-5.237-7.837v-.268a2.112,2.112,0,0,1-2.141-2.1V11.387c-.027-1.239.029-5.61,3.186-8.653C87.454-.8,93.271-.514,97.485,1.378a.172.172,0,0,1-.006.315l-1.1.452a.171.171,0,0,0,.047.329l.534.057a8.645,8.645,0,0,1,6.4,3.97.184.184,0,0,1-.022.212,5.182,5.182,0,0,0-1.415,3.559v4.674a2.1,2.1,0,0,1-2.1,2.1H99.7v.268a8.48,8.48,0,0,1-5.237,7.837l.013.032a4.024,4.024,0,0,0,.57,2.51,3.546,3.546,0,0,0,2.977,1.615,6.387,6.387,0,0,1,6.388,6.387Z" transform="translate(-78.028 0)" fill="#ffdfba"/><path d="M104.407,331.451v3.4a.689.689,0,0,1-.685.692H78.713a.689.689,0,0,1-.685-.692v-3.4A6.421,6.421,0,0,1,84.416,325a3.537,3.537,0,0,0,2.977-1.632,5.833,5.833,0,0,0,7.648,0A3.537,3.537,0,0,0,98.019,325,6.421,6.421,0,0,1,104.407,331.451Z" transform="translate(-78.028 -295.795)" fill="#fe4f60"/><path d="M130.716,6.57a.185.185,0,0,1-.022.213,5.272,5.272,0,0,0-1.412,3.6V15.1a2.114,2.114,0,0,1-2.223,2.123V11.88a4.129,4.129,0,0,0-4.1-4.153h-8.722a4.129,4.129,0,0,0-4.1,4.153v5.345a2.121,2.121,0,0,1-2.138-2.123v-3.6c-.027-1.252.029-5.668,3.181-8.742,3.665-3.575,9.473-3.282,13.679-1.37a.174.174,0,0,1-.006.318l-1.1.457a.174.174,0,0,0,.047.332l.533.058a8.615,8.615,0,0,1,6.389,4.011Z" transform="translate(-105.395 0)"/><path d="M149.889,99.055a8.436,8.436,0,1,1-16.861-.271V93.439a4.121,4.121,0,0,1,4.087-4.153H145.8a4.121,4.121,0,0,1,4.087,4.153Z" transform="translate(-128.269 -81.705)" fill="#ffebd2"/><path d="M283.8,432.44H281.72a.692.692,0,1,1,0-1.384H283.8a.692.692,0,1,1,0,1.384Z" transform="translate(-263.669 -394.167)" fill="#fff"/><path d="M139.655,118.885a1.368,1.368,0,0,1-1.244,2.423,8.568,8.568,0,0,1-5.383-7.955v-5.616a4.135,4.135,0,0,1,.729-2.351,1.023,1.023,0,0,1,1.867.62v5.616A8.5,8.5,0,0,0,139.655,118.885Z" transform="translate(-128.336 -96.016)" fill="#fff3e4"/><path d="M199.67,295.139a8.59,8.59,0,0,1-6.772,0,5.363,5.363,0,0,0,.1-1.421l.013-.032a8.584,8.584,0,0,0,6.55,0l.013.032A5.36,5.36,0,0,0,199.67,295.139Z" transform="translate(-183.094 -268.548)" fill="#ffd6a6"/><path d="M87.969,327.088a3.52,3.52,0,0,1-1.031.159,6.471,6.471,0,0,0-6.487,6.431v.65a1.211,1.211,0,0,1-1.211,1.211H78.72a.692.692,0,0,1-.692-.692v-3.4A6.454,6.454,0,0,1,84.482,325a3.583,3.583,0,0,0,3.008-1.632,5.986,5.986,0,0,0,.823.59A1.729,1.729,0,0,1,87.969,327.088Z" transform="translate(-78.028 -295.795)" fill="#ff6d7a"/><path d="M258.553,327.088a3.52,3.52,0,0,0,1.031.159,6.471,6.471,0,0,1,6.487,6.431v.65a1.211,1.211,0,0,0,1.211,1.211h.519a.692.692,0,0,0,.692-.692v-3.4A6.454,6.454,0,0,0,262.04,325a3.583,3.583,0,0,1-3.008-1.632,5.987,5.987,0,0,1-.823.59A1.729,1.729,0,0,0,258.553,327.088Z" transform="translate(-242.115 -295.795)" fill="#e84857"/><path d="M125.047,1.711c-1.017.419-1.162.511-1.515.456-5.683-.881-10.669,1.47-12.362,6.99h0a4.133,4.133,0,0,0-1.016,2.721v3.247a1.082,1.082,0,1,1-2.163-.025V11.5c-.028-1.252.029-5.668,3.219-8.742,3.709-3.575,9.586-3.282,13.843-1.37a.174.174,0,0,1-.006.318Z" transform="translate(-105.395 0)" fill="#2e2c2c"/></g></g></g></svg>