<svg xmlns="http://www.w3.org/2000/svg" xmlns:xlink="http://www.w3.org/1999/xlink" width="44" height="44" viewBox="0 0 44 44">
  <defs>
    <clipPath id="clip-path">
      <ellipse id="Ellipse_5730" data-name="Ellipse 5730" cx="22" cy="21.5" rx="22" ry="21.5" transform="translate(-0.333 -0.166)" fill="#fff"/>
    </clipPath>
  </defs>
  <g id="Group_52977" data-name="Group 52977" transform="translate(-1138 -1691.001)">
    <rect id="_6717563c1db1c6fb9ccdfae2d08bc540" data-name="6717563c1db1c6fb9ccdfae2d08bc540" width="44" height="44" rx="22" transform="translate(1138 1691.001)" fill="#f3f3f3"/>
    <g id="Mask_Group_15" data-name="Mask Group 15" transform="translate(1138.333 1692.166)" clip-path="url(#clip-path)">
      <g id="_011-woman" data-name="011-woman" transform="translate(7.917 4.167)">
        <path id="Path_30006" data-name="Path 30006" d="M100.589,36.736V40.2a.705.705,0,0,1-.705.705H74.143a.705.705,0,0,1-.705-.705V36.736A6.576,6.576,0,0,1,77.3,30.748a10.309,10.309,0,0,1-3.373-3.867,9.321,9.321,0,0,1,.638-9.218,9.067,9.067,0,0,0,1.521-5.028V8.815A8.815,8.815,0,0,1,84.9,0h4.231a8.815,8.815,0,0,1,8.815,8.815c0,4.045-.1,4.837.389,6.446.688,2.274,1.6,2.556,2.3,4.87a9.326,9.326,0,0,1-3.118,10l-.781.621A6.576,6.576,0,0,1,100.589,36.736Z" transform="translate(-72.997 0)" fill="#ffdfba"/>
        <path id="Path_30007" data-name="Path 30007" d="M105.152,345.361v3.461a.705.705,0,0,1-.705.705H78.706a.705.705,0,0,1-.705-.705v-3.461a6.574,6.574,0,0,1,6.573-6.573,3.648,3.648,0,0,0,1.514-.327l.022.048,5.034,3.9a.705.705,0,0,0,.863,0l5.034-3.9.022-.048a3.648,3.648,0,0,0,1.514.327A6.574,6.574,0,0,1,105.152,345.361Z" transform="translate(-77.56 -308.624)" fill="#ffaa64"/>
        <path id="Path_30008" data-name="Path 30008" d="M149.788,114.2a.706.706,0,0,1,.667.7v4.221a8.727,8.727,0,1,1-17.454,0v-4.16a.7.7,0,0,1,.766-.7,18.245,18.245,0,0,0,11.894-3.041.7.7,0,0,1,1.071.394A3.29,3.29,0,0,0,149.788,114.2Z" transform="translate(-127.712 -101.306)" fill="#ffebd2"/>
        <path id="Path_30009" data-name="Path 30009" d="M97.518,30.127l-.781.621a6.557,6.557,0,0,0-2.716-.585,3.647,3.647,0,0,1-3.652-3.644v-.6l-.013-.033a8.728,8.728,0,0,0,5.39-8.066V13.6a.706.706,0,0,0-.667-.7,3.288,3.288,0,0,1-3.056-2.585.7.7,0,0,0-1.071-.394,18.246,18.246,0,0,1-11.894,3.041.7.7,0,0,0-.766.7v4.16a8.728,8.728,0,0,0,5.39,8.066l-.013.033v.6a3.647,3.647,0,0,1-3.652,3.644,6.557,6.557,0,0,0-2.716.585l-.781-.621a9.326,9.326,0,0,1-1.953-12.464,9.067,9.067,0,0,0,1.521-5.028V8.815A8.815,8.815,0,0,1,84.9,0h4.231A8.815,8.815,0,0,1,97.95,8.815v3.82a9.072,9.072,0,0,0,1.521,5.028,9.326,9.326,0,0,1-1.953,12.464Z" transform="translate(-73.003 0)" fill="#42434d"/>
        <path id="Path_30010" data-name="Path 30010" d="M199.77,295.11a8.751,8.751,0,0,1-6.9,0,5.463,5.463,0,0,0,.1-1.447l.013-.033a8.745,8.745,0,0,0,6.673,0l.013.033A5.461,5.461,0,0,0,199.77,295.11Z" transform="translate(-182.304 -267.746)" fill="#ffd6a6"/>
        <path id="Path_30011" data-name="Path 30011" d="M93.114.949a.919.919,0,0,1-.5,1.736q-.416-.039-.842-.04H87.545A8.815,8.815,0,0,0,78.73,11.46v1.073c0,.633-.441.613-.441,1.126,0,4.656.019,4.362-.049,4.562-.692,2.034-1.522,2.329-2.2,4.555a9.318,9.318,0,0,0-.348,3.673.92.92,0,0,1-1.77.432,9.322,9.322,0,0,1,.638-9.218,9.067,9.067,0,0,0,1.521-5.028V8.815A8.815,8.815,0,0,1,84.9,0h4.231a8.778,8.778,0,0,1,3.982.949Z" transform="translate(-73 0)" fill="#4d4e59"/>
        <path id="Path_30012" data-name="Path 30012" d="M140.055,157.648a1.346,1.346,0,0,1-1.182,2.4A8.671,8.671,0,0,1,133,151.8v-4.16a.7.7,0,0,1,.766-.7c.338.031.709.055,1.109.067a1.344,1.344,0,0,1,1.3,1.345v2.04A8.7,8.7,0,0,0,140.055,157.648Z" transform="translate(-127.712 -133.984)" fill="#fff3e4"/>
        <path id="Path_30013" data-name="Path 30013" d="M87.565,339.633a.561.561,0,0,1-.332,1.005,6.572,6.572,0,0,0-6.587,6.573v2.315H78.706a.705.705,0,0,1-.705-.705v-3.461a6.574,6.574,0,0,1,6.573-6.573,3.647,3.647,0,0,0,1.514-.327l.022.048Z" transform="translate(-77.56 -308.624)" fill="#ffbd7b"/>
        <path id="Path_30014" data-name="Path 30014" d="M275.245,339.633a.561.561,0,0,0,.332,1.005,6.572,6.572,0,0,1,6.587,6.573v2.315H284.1a.705.705,0,0,0,.705-.705v-3.461a6.574,6.574,0,0,0-6.573-6.573,3.647,3.647,0,0,1-1.514-.327l-.022.048Z" transform="translate(-257.217 -308.624)" fill="#faa157"/>
      </g>
    </g>
  </g>
</svg>
