<svg xmlns="http://www.w3.org/2000/svg" xmlns:xlink="http://www.w3.org/1999/xlink" width="1366" height="459" viewBox="0 0 1366 459"><defs><clipPath id="a"><rect width="88" height="88" rx="16" fill="none"/></clipPath></defs><g transform="translate(0 -2007)"><g transform="translate(113 714)"><rect width="88" height="88" rx="20" transform="translate(1070 1360)" fill="#f3f3f3"/><g transform="translate(1070 1360)"><rect width="88" height="88" rx="16" fill="none"/><g clip-path="url(#a)"><g transform="translate(-407.666 -184.022)" fill="none" stroke-miterlimit="10"><path d="M293.053,0c88.655,0,32.529,106.846,104.252,155.437s155.245-39.7,182.641,38.924,27.4,95.221,0,173.842-37.86,92.051-109.583,140.641-78.379-28.208-167.034-28.208-115.862,76.8-187.585,28.208S33.555,446.824,6.159,368.2s43.869-54.71,71.265-133.331S44.02,102.31,115.743,53.72,204.4,0,293.053,0Z" stroke="none"/><path d="M 293.0527648925781 2 C 267.5963439941406 2 251.7031860351562 2.4501953125 238.1957702636719 3.5540771484375 C 230.4860229492188 4.18414306640625 223.6340026855469 5.0350341796875 217.2481689453125 6.1553955078125 C 210.6849365234375 7.30682373046875 204.5943603515625 8.7452392578125 198.62841796875 10.552734375 C 192.6632690429688 12.36004638671875 186.8302612304688 14.5340576171875 180.7961120605469 17.19903564453125 C 174.9257507324219 19.791748046875 168.8481750488281 22.85772705078125 162.2160949707031 26.57220458984375 C 150.5955200195312 33.08074951171875 137.4562683105469 41.42572021484375 116.8646850585938 55.37588500976562 C 111.7758483886719 58.82339477539062 107.2095031738281 62.41348266601562 103.2926025390625 66.04638671875 C 99.54977416992188 69.51797485351562 96.26626586914062 73.15304565429688 93.53341674804688 76.85055541992188 C 88.468017578125 83.70431518554688 85.06533813476562 90.99514770507812 83.13125610351562 99.13970947265625 C 81.46383666992188 106.160888671875 80.86785888671875 113.760986328125 81.25552368164062 123.0575561523438 C 81.60385131835938 131.4102172851562 82.69894409179688 140.0385437011719 83.85833740234375 149.1735534667969 C 87.05535888671875 174.36279296875 90.6788330078125 202.9129028320312 79.31301879882812 235.5303955078125 C 67.1845703125 270.3366394042969 46.37591552734375 285.5536499023438 29.65582275390625 297.7806396484375 C 18.9661865234375 305.5978088378906 9.734375 312.348876953125 5.16217041015625 322.3414916992188 C 2.7650146484375 327.58056640625 1.74786376953125 333.4768981933594 2.052490234375 340.3673706054688 C 2.39227294921875 348.0523071289062 4.35345458984375 356.9422302246094 8.04803466796875 367.5449829101562 C 15.91082763671875 390.1097412109375 21.278076171875 404.0567016601562 26.573486328125 415.6843872070312 C 29.59417724609375 422.317138671875 32.57476806640625 428.1217041015625 35.68560791015625 433.4297180175781 C 38.88226318359375 438.8843078613281 42.22540283203125 443.8320617675781 45.906005859375 448.5557250976562 C 49.5875244140625 453.2806396484375 53.6024169921875 457.7759704589844 58.18011474609375 462.2985534667969 C 62.6358642578125 466.7007141113281 67.638671875 471.1407165527344 73.474365234375 475.8724670410156 C 83.70260620117188 484.1657104492188 96.27359008789062 493.2385559082031 116.8646850585938 507.1882934570312 C 121.0229187011719 510.0054016113281 125.1480102539062 512.4685668945312 129.1253356933594 514.5094604492188 C 132.9620056152344 516.4781494140625 136.7892761230469 518.1194458007812 140.5007629394531 519.3876953125 C 147.5297546386719 521.78955078125 154.3041687011719 522.9571533203125 161.211181640625 522.9571533203125 C 165.6587524414062 522.9571533203125 170.078857421875 522.4757080078125 174.7240905761719 521.4854125976562 C 178.923095703125 520.5902099609375 183.2427673339844 519.2894897460938 187.929931640625 517.5089721679688 C 196.7630004882812 514.1534423828125 205.5965270996094 509.5813903808594 214.9486083984375 504.7409057617188 C 238.5890197753906 492.5049743652344 265.3836059570312 478.6365661621094 303.3281860351562 478.6365661621094 C 320.80859375 478.6365661621094 336.6860961914062 481.5774841308594 351.867919921875 487.6273803710938 C 365.0934448242188 492.897705078125 376.0740356445312 499.8436279296875 385.7620239257812 505.9718933105469 C 400.170166015625 515.0859985351562 412.613525390625 522.9571533203125 427.8846740722656 522.9571533203125 C 433.8163452148438 522.9571533203125 439.8667602539062 521.7941284179688 446.381591796875 519.4017333984375 C 453.4805908203125 516.7947998046875 460.9579467773438 512.7997436523438 469.2408447265625 507.1882934570312 C 489.8318481445312 493.2385559082031 502.40283203125 484.1657104492188 512.631103515625 475.8724670410156 C 518.4668579101562 471.1407165527344 523.4696044921875 466.7007141113281 527.9253540039062 462.2985534667969 C 532.5029907226562 457.7759704589844 536.5179443359375 453.2806396484375 540.199462890625 448.5557250976562 C 543.8800048828125 443.8320617675781 547.2232055664062 438.8843078613281 550.4198608398438 433.4297180175781 C 553.5307006835938 428.1217041015625 556.5113525390625 422.317138671875 559.5319213867188 415.6843872070312 C 564.8274536132812 404.0567016601562 570.194580078125 390.1097412109375 578.0574951171875 367.5449829101562 C 585.920166015625 344.9806518554688 590.3694458007812 330.7562255859375 593.414794921875 318.4478149414062 C 595.1514892578125 311.4283142089844 596.3987426757812 305.10107421875 597.2276000976562 299.1044616699219 C 598.0791015625 292.9447326660156 598.492919921875 287.1149597167969 598.492919921875 281.2820434570312 C 598.492919921875 275.44921875 598.0791015625 269.6194763183594 597.2276000976562 263.459716796875 C 596.3987426757812 257.463134765625 595.1514892578125 251.1358947753906 593.414794921875 244.1163940429688 C 590.3694458007812 231.8079833984375 585.920166015625 217.5835571289062 578.0574951171875 195.0192260742188 C 575.8446655273438 188.6687927246094 573.1650390625 183.21630859375 570.093017578125 178.81298828125 C 567.1836547851562 174.6429748535156 563.943603515625 171.3699645996094 560.1875 168.8070678710938 C 556.6941528320312 166.4234008789062 552.8572387695312 164.7272338867188 548.4574584960938 163.6216430664062 C 544.411376953125 162.6047973632812 539.96923828125 162.1106262207031 534.8776245117188 162.1108093261719 C 523.78173828125 162.1111450195312 511.3280944824219 164.4953918457031 498.1431884765625 167.0196533203125 C 482.8612670898438 169.9453125 467.05908203125 172.9706420898438 450.7178344726562 172.9706420898438 C 429.7926635742188 172.9706420898438 411.954345703125 167.7768859863281 396.1834106445312 157.0925598144531 C 362.6462707519531 134.3721313476562 356.489013671875 99.24871826171875 351.0565795898438 68.2598876953125 C 349.44775390625 59.0821533203125 347.9281005859375 50.41339111328125 345.7838439941406 42.4208984375 C 344.6440124511719 38.171875 343.42626953125 34.48199462890625 342.0610961914062 31.140380859375 C 340.5518493652344 27.4461669921875 338.89501953125 24.2498779296875 336.9957580566406 21.36895751953125 C 332.8336181640625 15.0555419921875 327.5824279785156 10.4482421875 320.9421081542969 7.28363037109375 C 317.343017578125 5.56842041015625 313.252685546875 4.25628662109375 308.7848510742188 3.3839111328125 C 304.0824279785156 2.465576171875 298.7893371582031 2 293.0527648925781 2 M 293.0527648925781 0 C 381.7077026367188 0 325.5818481445312 106.8464050292969 397.30517578125 155.4367370605469 C 444.5050048828125 187.4130249023438 496.8167724609375 160.1119995117188 534.8775024414062 160.1108093261719 C 554.6527099609375 160.1101989746094 570.5789184570312 167.4792175292969 579.9461059570312 194.3611450195312 C 607.3419189453125 272.9819030761719 607.3419189453125 289.5823059082031 579.9461059570312 368.2030639648438 C 552.5501708984375 446.8237915039062 542.0858764648438 460.2538146972656 470.3626098632812 508.8441467285156 C 453.1278076171875 520.5202026367188 439.6458129882812 524.9571533203125 427.8846740722656 524.9571533203125 C 390.7012939453125 524.9571533203125 370.6797485351562 480.6365661621094 303.3281860351562 480.6365661621094 C 235.9820556640625 480.6365661621094 204.0895690917969 524.9571533203125 161.2111511230469 524.9571533203125 C 147.6441345214844 524.9571533203125 132.9820861816406 520.5231323242188 115.742919921875 508.8441467285156 C 44.01959228515625 460.2538146972656 33.55523681640625 446.8237915039062 6.159423828125 368.2030639648438 C -21.23651123046875 289.5823059082031 50.02850341796875 313.4930419921875 77.4244384765625 234.872314453125 C 104.8203430175781 156.2515563964844 44.01959228515625 102.3103942871094 115.742919921875 53.72006225585938 C 187.4662780761719 5.12982177734375 204.3978576660156 0 293.0527648925781 0 Z" stroke="none" fill="#fff"/></g><g transform="translate(-343.39 -131.193)" fill="none" stroke-miterlimit="10"><path d="M230.1.04C287.355.2,250.988,3.41,279.613,52.5s-33.679,57.883,179.746,103.29,21.709,76.835,0,139.31-29.933,98.846-87.57,112.7S300.943,350.223,230.1,350.223s-84.7,71.286-141.692,57.583S7.928,345.958.835,295.1s32.632-36.863,56.949-106.846S47.558,87.707,88.406,43.089,172.84-.125,230.1.04Z" stroke="none"/><path d="M 214.828369140625 1.000030517578125 C 203.2971801757812 1.000030517578125 191.0157470703125 1.12420654296875 179.3304748535156 2.02520751953125 C 167.1171875 2.96685791015625 156.5756530761719 4.69122314453125 147.1033935546875 7.296661376953125 C 136.2596435546875 10.27938842773438 126.522216796875 14.4659423828125 117.3346557617188 20.09548950195312 C 112.4673461914062 23.07785034179688 107.6767578125 26.53076171875 103.0957641601562 30.35821533203125 C 98.3558349609375 34.31857299804688 93.66156005859375 38.82904052734375 89.1431884765625 43.764404296875 C 78.80810546875 55.05340576171875 72.6888427734375 66.09658813476562 69.88543701171875 78.51785278320312 C 68.722900390625 83.66867065429688 68.0902099609375 89.11166381835938 67.8941650390625 95.64749145507812 C 67.7186279296875 101.5027770996094 67.91485595703125 107.51220703125 68.1224365234375 113.8745727539062 C 68.789306640625 134.3037719726562 69.54510498046875 157.4586791992188 58.72918701171875 188.5853118896484 C 47.1251220703125 221.9800415039062 32.1641845703125 236.2621307373047 20.142822265625 247.738037109375 C 13.693359375 253.8949432373047 8.12347412109375 259.2122192382812 4.72161865234375 266.16357421875 C 2.93719482421875 269.8099365234375 1.82391357421875 273.7396850585938 1.31817626953125 278.1773071289062 C 0.7633056640625 283.046142578125 0.92926025390625 288.5372924804688 1.82574462890625 294.9646606445312 C 5.7435302734375 323.0552368164062 14.12274169921875 346.5574951171875 26.73065185546875 364.8185729980469 C 30.2279052734375 369.884033203125 34.099365234375 374.5997619628906 38.2373046875 378.8348388671875 C 42.54547119140625 383.2440490722656 47.2598876953125 387.2523193359375 52.24993896484375 390.7482299804688 C 57.43756103515625 394.3827514648438 63.065673828125 397.5635986328125 68.97802734375 400.2023010253906 C 75.1168212890625 402.9422302246094 81.73193359375 405.173583984375 88.63934326171875 406.8343200683594 C 93.39154052734375 407.9768676757812 98.044921875 408.5561218261719 102.4702758789062 408.5561218261719 C 107.4154663085938 408.5561218261719 112.1272583007812 407.8675842285156 116.8749389648438 406.4511413574219 C 121.1439819335938 405.1773986816406 125.3707275390625 403.3316650390625 129.7968139648438 400.8083190917969 C 138.1068115234375 396.0708618164062 145.8075561523438 389.6898498535156 153.9605712890625 382.9342041015625 C 173.0300903320312 367.1329345703125 194.6440124511719 349.223388671875 230.0975646972656 349.223388671875 C 265.4654541015625 349.223388671875 286.9201965332031 367.0994873046875 305.8492736816406 382.8712158203125 C 313.9844665527344 389.6495056152344 321.6685485839844 396.0518493652344 329.9932861328125 400.80859375 C 334.427734375 403.3424072265625 338.6697387695312 405.196044921875 342.9615478515625 406.4753112792969 C 347.73583984375 407.8984069824219 352.4826354980469 408.5902099609375 357.4731750488281 408.5902099609375 C 361.9714660644531 408.5902099609375 366.70947265625 407.9993896484375 371.5556335449219 406.8343200683594 C 384.5322875976562 403.7144165039062 395.1835632324219 399.40966796875 404.1181945800781 393.6742248535156 C 412.4541931152344 388.3231201171875 419.4495544433594 381.6045837402344 425.5042724609375 373.1345825195312 C 437.1630249023438 356.8250427246094 444.5042114257812 335.3657531738281 453.7984619140625 308.1973266601562 C 455.2794799804688 303.8680419921875 456.8109130859375 299.3914794921875 458.4151916503906 294.7744750976562 C 461.7476501464844 285.184326171875 469.28662109375 275.493408203125 481.4630126953125 265.1482238769531 C 492.0921020507812 256.1174926757812 504.6407470703125 247.8673095703125 516.7762451171875 239.8887634277344 C 528.457763671875 232.2086791992188 539.4912719726562 224.95458984375 547.2464599609375 217.9633941650391 C 551.3428955078125 214.2704925537109 554.207763671875 210.9440307617188 556.004638671875 207.7939453125 C 557.938720703125 204.4034881591797 558.6016235351562 201.2815856933594 558.0311889648438 198.2499389648438 C 557.7303466796875 196.6512145996094 557.0679321289062 195.0499420166016 556.0620727539062 193.4907684326172 C 555.0015869140625 191.8466796875 553.5244750976562 190.1933135986328 551.6717529296875 188.5765838623047 C 547.748291015625 185.1529388427734 541.9386596679688 181.7226715087891 534.4039916992188 178.3810424804688 C 526.467529296875 174.8612213134766 516.3056640625 171.3020324707031 504.2007446289062 167.802490234375 C 491.624267578125 164.1665802001953 476.4675598144531 160.4551391601562 459.1517333984375 156.7711181640625 C 418.9456481933594 148.2173156738281 387.9957275390625 140.8478698730469 364.5333862304688 134.2416687011719 C 342.1921081542969 127.9511413574219 325.890380859375 122.1298522949219 314.6966552734375 116.4451293945312 C 292.7264709472656 105.2875061035156 290.8812866210938 94.94195556640625 288.5451965332031 81.84402465820312 C 287.0953674316406 73.71511840820312 285.4520874023438 64.50167846679688 278.7495422363281 53.00686645507812 C 273.7769165039062 44.47866821289062 270.3044738769531 36.60641479492188 268.1339111328125 28.94012451171875 C 266.2962951660156 22.44985961914062 265.7826538085938 17.50112915039062 265.3699035644531 13.52474975585938 C 265.0678405761719 10.61459350585938 264.8291931152344 8.3160400390625 264.1492919921875 6.635589599609375 C 263.4779968261719 4.97650146484375 262.3784484863281 3.942230224609375 260.4725646972656 3.1771240234375 C 256.0998229980469 1.421661376953125 247.1929016113281 1.089324951171875 230.0946350097656 1.040130615234375 C 228.5311889648438 1.035675048828125 226.9779968261719 1.03021240234375 225.434814453125 1.02484130859375 C 221.7716369628906 1.012115478515625 218.3114624023438 1.000030517578125 214.828369140625 1.000030517578125 M 214.828369140625 0 C 219.8111572265625 0 224.8974304199219 0.025177001953125 230.0975646972656 0.040130615234375 C 287.354736328125 0.204864501953125 250.9880065917969 3.410400390625 279.6134643554688 52.50311279296875 C 308.2388305664062 101.5958557128906 245.9340209960938 110.3865966796875 459.3598327636719 155.7930297851562 C 672.78564453125 201.1994934082031 481.06884765625 232.6277618408203 459.3598327636719 295.102783203125 C 437.6508178710938 357.5776672363281 429.4270935058594 393.9490356445312 371.7893676757812 407.8065795898438 C 366.6954345703125 409.0313110351562 361.9435424804688 409.5901794433594 357.4731750488281 409.5901794433594 C 311.3619079589844 409.5901794433594 294.6821899414062 350.223388671875 230.0975646972656 350.223388671875 C 165.4652709960938 350.223388671875 148.2638549804688 409.55615234375 102.4702758789062 409.55615234375 C 98.06768798828125 409.55615234375 93.4044189453125 409.0084228515625 88.4056396484375 407.8065795898438 C 31.41217041015625 394.1038513183594 7.9281005859375 345.9576721191406 0.83526611328125 295.102783203125 C -6.25762939453125 244.2477569580078 33.4669189453125 258.2393798828125 57.7845458984375 188.2570343017578 C 82.102294921875 118.2745971679688 47.55792236328125 87.70703125 88.4056396484375 43.08914184570312 C 125.5435791015625 2.523529052734375 164.9468078613281 0 214.828369140625 0 Z" stroke="none" fill="#fff"/></g><g transform="translate(-323.139 -103.898)" fill="none" stroke-miterlimit="10"><path d="M212.48,14.123c47.013,16.965,22.731,69.667,66.8,99.49s87.148-9.858,117.029,24.914S462.983,157.4,445.576,207.3s-73.4,125.828-119.483,132.519-48.8-32.1-107.243-32.1-75.576,38.236-119.984,32.1S6.065,296.165.378,255.546s54.437-35.191,73.936-91.088S55.345,61.02,88.1,25.382,165.467-2.842,212.48,14.123Z" stroke="none"/><path d="M 147.2928771972656 1.999969482421875 C 141.7828369140625 1.999969482421875 136.4638977050781 2.44964599609375 131.4838256835938 3.336456298828125 C 126.2721862792969 4.26458740234375 121.2483825683594 5.703887939453125 116.5519409179688 7.6143798828125 C 111.65576171875 9.60614013671875 106.9485778808594 12.17776489257812 102.5610656738281 15.2576904296875 C 97.99456787109375 18.46331787109375 93.6239013671875 22.32501220703125 89.5704345703125 26.73544311523438 C 72.49664306640625 45.31289672851562 75.50802612304688 67.31951904296875 78.994873046875 92.80101013183594 C 81.95751953125 114.4512634277344 85.31546020507812 138.9902038574219 76.20175170898438 165.1162109375 C 66.26962280273438 193.5886383056641 45.72183227539062 206.7174530029297 29.21133422851562 217.2665710449219 C 25.00344848632812 219.9552001953125 21.02883911132812 222.4947052001953 17.465576171875 225.1137084960938 C 13.535888671875 228.0020141601562 10.64996337890625 230.5871429443359 8.383453369140625 233.2492065429688 C 5.80712890625 236.2750854492188 4.06402587890625 239.3925170898438 3.0545654296875 242.7796325683594 C 1.935333251953125 246.5352783203125 1.70758056640625 250.6202697753906 2.3583984375 255.2682037353516 C 3.69219970703125 264.7946472167969 7.474578857421875 274.4280700683594 13.6004638671875 283.9009399414062 C 16.50900268554688 288.3987121582031 19.94439697265625 292.8391418457031 23.81112670898438 297.098876953125 C 27.59881591796875 301.2715759277344 31.8270263671875 305.3008422851562 36.37832641601562 309.07470703125 C 40.87664794921875 312.8046264648438 45.713134765625 316.30419921875 50.75350952148438 319.4761352539062 C 55.78677368164062 322.6436462402344 61.04446411132812 325.4977722167969 66.38046264648438 327.9592590332031 C 71.76495361328125 330.4431457519531 77.25494384765625 332.5388793945312 82.69775390625 334.1882019042969 C 88.241943359375 335.8681945800781 93.77395629882812 337.0957641601562 99.1400146484375 337.8368225097656 C 102.2503356933594 338.2663269042969 105.3436279296875 338.4840698242188 108.3340759277344 338.4840698242188 C 115.9269409179688 338.4840698242188 123.1544494628906 337.150390625 131.0793762207031 334.2868957519531 C 138.2112731933594 331.7099609375 145.0123901367188 328.2205810546875 152.2128295898438 324.5263366699219 C 169.3993225097656 315.7086486816406 188.8789367675781 305.7144470214844 218.8503875732422 305.7144470214844 C 248.9168853759766 305.7144470214844 264.6585693359375 315.8668212890625 278.547119140625 324.8240661621094 C 284.21875 328.4819030761719 289.5758056640625 331.9368286132812 295.525146484375 334.4715270996094 C 302.126220703125 337.2839050292969 308.5966796875 338.5937805175781 315.8880004882812 338.5937805175781 C 319.0189514160156 338.5937805175781 322.3558349609375 338.3397521972656 325.8060302734375 337.8387756347656 C 336.4220581054688 336.2973327636719 348.1183776855469 330.8660888671875 360.5700073242188 321.6958923339844 C 366.3358764648438 317.4495239257812 372.2569580078125 312.3935241699219 378.168701171875 306.6683349609375 C 383.8186950683594 301.1966552734375 389.5011291503906 295.0751953125 395.0581970214844 288.4739379882812 C 405.6163330078125 275.9320068359375 415.7355651855469 261.62451171875 424.3220825195312 247.09814453125 C 432.7061462402344 232.9142761230469 439.4026489257812 218.9241333007812 443.6877746582031 206.64013671875 C 446.3130187988281 199.1142120361328 447.7273864746094 193.0215759277344 448.0115661621094 188.0140838623047 C 448.2640075683594 183.5652618408203 447.611572265625 179.9601440429688 446.0169372558594 176.9926452636719 C 442.9320678710938 171.251953125 436.437255859375 168.0278930664062 428.2145080566406 163.9460754394531 C 418.3485717773438 159.0485229492188 406.070068359375 152.9533233642578 394.7935180664062 139.8310852050781 C 390.0054931640625 134.2593231201172 384.6625671386719 130.4202117919922 378.4593811035156 128.0941467285156 C 373.1995849609375 126.1218872070312 367.30712890625 125.2033233642578 359.91552734375 125.2034606933594 C 354.0994567871094 125.2035217285156 348.111328125 125.7593231201172 341.7716369628906 126.3477020263672 C 335.0888977050781 126.9678955078125 328.1785888671875 127.6092681884766 321.1048889160156 127.6092681884766 C 310.4969482421875 127.6092681884766 294.5039672851562 126.330078125 278.1600341796875 115.2696380615234 C 256.436279296875 100.5683898925781 250.7443237304688 80.06390380859375 245.7223815917969 61.97320556640625 C 242.9640808105469 52.03671264648438 240.3587646484375 42.65133666992188 235.4658813476562 34.65945434570312 C 232.8830108642578 30.44070434570312 229.8714447021484 26.9493408203125 226.2590789794922 23.98577880859375 C 222.2118225097656 20.66546630859375 217.4825744628906 18.05471801757812 211.8010711669922 16.00445556640625 C 199.3287048339844 11.50357055664062 188.4766845703125 8.213897705078125 178.6249389648438 5.94732666015625 C 167.0797729492188 3.2911376953125 156.8309631347656 1.999969482421875 147.2928771972656 1.999969482421875 M 147.2928771972656 -3.0517578125e-05 C 167.76171875 -3.0517578125e-05 189.8429565429688 5.954254150390625 212.4799499511719 14.12319946289062 C 259.4927673339844 31.08859252929688 235.2113800048828 83.78982543945312 279.2809448242188 113.6132659912109 C 293.4588623046875 123.2079315185547 307.53857421875 125.6092681884766 321.1048889160156 125.6092681884766 C 349.7070922851562 125.6092529296875 376.0423278808594 114.9419860839844 396.3103942871094 138.5275726318359 C 426.1918334960938 173.3000183105469 462.9831237792969 157.3983306884766 445.5761413574219 207.2988891601562 C 428.1690673828125 257.199462890625 372.1764526367188 333.1267700195312 326.0933837890625 339.8180236816406 C 322.4368896484375 340.3489379882812 319.0479125976562 340.5937805175781 315.8880004882812 340.5937805175781 C 279.2234497070312 340.5937805175781 272.6602172851562 307.7144470214844 218.8503875732422 307.7144470214844 C 164.7444763183594 307.7144470214844 146.0423278808594 340.4840393066406 108.3340759277344 340.4840393066406 C 105.3083801269531 340.4840393066406 102.1650695800781 340.2735595703125 98.866455078125 339.8180236816406 C 54.45831298828125 333.6854553222656 6.06494140625 296.1648254394531 0.377685546875 255.5455169677734 C -5.309600830078125 214.9262084960938 54.81463623046875 220.3544006347656 74.31338500976562 164.4574584960938 C 93.81219482421875 108.5604553222656 55.34475708007812 61.0196533203125 88.097900390625 25.382080078125 C 105.0801696777344 6.90423583984375 125.251708984375 -3.0517578125e-05 147.2928771972656 -3.0517578125e-05 Z" stroke="none" fill="#fff"/></g><g transform="translate(-288.8 -89.81)" fill="none" stroke-miterlimit="10"><path d="M118.271,0c45.367,0,76.8,87.922,113.5,112.836s58.629,19.958,93.463,19.958,75.6,37.981,61.583,78.293-80.957,58.039-117.66,82.953-41.686-51.266-87.054-51.266S124.393,318.954,87.69,294.04s-71.732,18.9-85.751-21.409,52.123-78.754,66.143-119.066S50.987,85.6,87.69,60.682,72.9,0,118.271,0Z" stroke="none"/><path d="M 118.2706298828125 1 C 113.3694152832031 1 109.561767578125 1.41162109375 106.6301879882812 2.25830078125 C 104.0289306640625 3.009674072265625 102.1908874511719 4.086517333984375 101.010986328125 5.550506591796875 C 99.73129272460938 7.1383056640625 99.19110107421875 9.229400634765625 99.31082153320312 12.13134765625 C 99.42434692382812 14.88088989257812 100.1192016601562 18.0770263671875 100.8548889160156 21.4608154296875 C 103.5131530761719 33.68777465820312 106.8214721679688 48.90463256835938 88.25161743164062 61.50973510742188 C 78.5350341796875 68.10530090332031 73.0465087890625 75.2403564453125 70.97882080078125 83.96420288085938 C 70.125 87.56666564941406 69.81979370117188 91.46588134765625 70.01824951171875 96.23513793945312 C 70.19656372070312 100.5189819335938 70.75704956054688 104.9435729980469 71.35040283203125 109.6279907226562 C 72.98605346679688 122.5403594970703 74.83987426757812 137.1755676269531 69.02578735351562 153.8936157226562 C 63.40188598632812 170.0646667480469 49.3756103515625 186.0639343261719 35.81118774414062 201.5364685058594 C 30.69677734375 207.370361328125 25.408203125 213.40283203125 20.67919921875 219.3262939453125 C 15.39520263671875 225.9449310302734 11.3714599609375 231.7402038574219 8.3780517578125 237.0433654785156 C 4.81182861328125 243.361083984375 2.59368896484375 249.1298217773438 1.596771240234375 254.67919921875 C 1.06024169921875 257.6656188964844 0.88482666015625 260.6242370605469 1.075408935546875 263.4728698730469 C 1.274993896484375 266.4568786621094 1.883209228515625 269.4276123046875 2.883056640625 272.3026123046875 C 5.164093017578125 278.8616333007812 8.079345703125 283.3868408203125 11.79541015625 286.1368408203125 C 14.98388671875 288.4963684082031 18.77993774414062 289.5953674316406 23.74188232421875 289.5953674316406 C 28.52487182617188 289.5953674316406 33.86367797851562 288.5687255859375 39.51593017578125 287.4817810058594 C 46.23788452148438 286.189208984375 53.18869018554688 284.8525695800781 60.60382080078125 284.8525695800781 C 70.9208984375 284.8525695800781 79.96450805664062 287.5870361328125 88.25161743164062 293.2123107910156 C 93.04302978515625 296.4646606445312 97.50115966796875 298.0457153320312 101.8806762695312 298.0457153320312 C 104.6373596191406 298.0457153320312 107.3225708007812 297.4226684570312 110.08984375 296.140869140625 C 112.6105041503906 294.9733581542969 115.1594543457031 293.2745666503906 117.8824157714844 290.947509765625 C 123.0335693359375 286.5451965332031 127.9963073730469 280.5815124511719 133.2503662109375 274.2676696777344 C 145.9246215820312 259.0369873046875 160.2899322509766 241.7741394042969 182.1060485839844 241.7741394042969 C 204.252197265625 241.7741394042969 216.9145202636719 259.3906860351562 228.0861968994141 274.9334106445312 C 232.5202484130859 281.102294921875 236.7084045410156 286.9291381835938 241.1558380126953 291.2010498046875 C 246.0174102783203 295.8707885742188 250.5322570800781 298.0457153320312 255.3642578125 298.0457153320312 C 257.3416748046875 298.0457153320312 259.4169311523438 297.6646728515625 261.5325317382812 296.9130859375 C 263.7786865234375 296.1150817871094 266.1558227539062 294.8699951171875 268.5979309082031 293.2123107910156 C 280.1104125976562 285.3976745605469 294.3323059082031 278.4094543457031 309.3893127441406 271.0109252929688 C 325.6609802246094 263.0155029296875 342.4867248535156 254.7478790283203 356.3836059570312 245.0582580566406 C 363.8585205078125 239.8463439941406 369.806396484375 234.7137145996094 374.5672607421875 229.3669891357422 C 377.1442565917969 226.4727783203125 379.3859252929688 223.4827728271484 381.2298889160156 220.4800415039062 C 383.1638793945312 217.3307189941406 384.7267150878906 214.0597229003906 385.875 210.7578735351562 C 388.7523193359375 202.4844665527344 389.3998413085938 193.98046875 387.799560546875 185.4820404052734 C 387.0566711425781 181.5367279052734 385.8213195800781 177.5934143066406 384.1278381347656 173.7616729736328 C 382.4969482421875 170.0715637207031 380.4281921386719 166.4538879394531 377.9790954589844 163.0091400146484 C 365.5550842285156 145.5345153808594 344.3595581054688 133.7937164306641 325.2367248535156 133.7937164306641 C 320.0934143066406 133.7937164306641 315.2450866699219 133.9017181396484 310.5563659667969 134.0061492919922 C 306.1907958984375 134.1033477783203 302.0673217773438 134.1951904296875 297.9923706054688 134.1951904296875 C 274.85498046875 134.1951904296875 256.5104675292969 130.8355712890625 231.2122497558594 113.6631927490234 C 216.5489959716797 103.7098846435547 203.0256195068359 84.24772644042969 188.7082061767578 63.64288330078125 C 178.0632019042969 48.3232421875 167.0557861328125 32.48199462890625 155.4158325195312 20.64013671875 C 149.1720886230469 14.2882080078125 143.3019409179688 9.6236572265625 137.4699859619141 6.380096435546875 C 134.3243103027344 4.63055419921875 131.1555786132812 3.292449951171875 128.0517883300781 2.402984619140625 C 124.8031616210938 1.4720458984375 121.5122680664062 1 118.2706298828125 1 M 118.2706298828125 0 C 163.6380462646484 0 195.0708923339844 87.92198181152344 231.7738800048828 112.8358306884766 C 258.0287170410156 130.6575317382812 276.7266845703125 133.1951904296875 297.9923706054688 133.1951904296875 C 306.4551086425781 133.1951904296875 315.320556640625 132.7937164306641 325.2367248535156 132.7937164306641 C 360.0708923339844 132.7937164306641 400.8388366699219 170.7748870849609 386.8195190429688 211.0863647460938 C 372.8002624511719 251.3978271484375 305.8625793457031 269.1257629394531 269.1595764160156 294.0396728515625 C 264.002685546875 297.5401611328125 259.46875 299.0457153320312 255.3642425537109 299.0457153320312 C 230.2557983398438 299.0457153320312 221.0991668701172 242.7741394042969 182.1060485839844 242.7741394042969 C 143.1156463623047 242.7741394042969 128.513916015625 299.0457153320312 101.8807067871094 299.0457153320312 C 97.52474975585938 299.0457153320312 92.84912109375 297.5416564941406 87.69000244140625 294.0396728515625 C 78.4537353515625 287.7701416015625 69.3199462890625 285.8525695800781 60.60385131835938 285.8525695800781 C 34.68386840820312 285.8525695800781 12.429931640625 302.7982788085938 1.938507080078125 272.631103515625 C -12.08074951171875 232.3195648193359 54.06195068359375 193.8766784667969 68.08126831054688 153.5651397705078 C 82.10055541992188 113.2536773681641 50.9869384765625 85.59619140625 87.69000244140625 60.68234252929688 C 124.3930053710938 35.76852416992188 72.9031982421875 0 118.2706298828125 0 Z" stroke="none" fill="#fff"/></g></g></g></g><g transform="translate(115 2278)"><rect width="88" height="88" rx="20" fill="#f3f3f3"/><rect width="88" height="88" rx="16" fill="none"/><g clip-path="url(#a)"><g transform="translate(-104.827 -252.935)" fill="none" stroke-miterlimit="10"><path d="M307.44,524.957c-88.655,0-32.529-106.846-104.252-155.437S47.943,409.217,20.547,330.6s-27.4-95.221,0-173.842S58.407,64.7,130.13,16.113,208.51,44.321,297.165,44.321s115.862-76.8,187.585-28.208,82.188,62.02,109.583,140.641-43.869,54.71-71.265,133.331,33.4,132.562-38.318,181.152S396.1,524.957,307.44,524.957Z" stroke="none"/><path d="M 307.4402770996094 522.9571533203125 C 332.8966979980469 522.9571533203125 348.7898559570312 522.5069580078125 362.2972717285156 521.403076171875 C 370.0070190429688 520.7730102539062 376.8590393066406 519.922119140625 383.244873046875 518.8017578125 C 389.80810546875 517.6503295898438 395.898681640625 516.2119140625 401.8646240234375 514.4044189453125 C 407.8297729492188 512.5971069335938 413.6627807617188 510.423095703125 419.6969299316406 507.7580871582031 C 425.5672912597656 505.1654357910156 431.6448669433594 502.0994262695312 438.2769470214844 498.3849182128906 C 449.8975219726562 491.8764343261719 463.0367736816406 483.5314331054688 483.6283569335938 469.5812683105469 C 488.7171936035156 466.1337585449219 493.2835388183594 462.5436706542969 497.200439453125 458.9107666015625 C 500.9432678222656 455.4391784667969 504.2267761230469 451.8041076660156 506.9596252441406 448.1065979003906 C 512.0250244140625 441.2528381347656 515.4276733398438 433.9620056152344 517.3617553710938 425.8174438476562 C 519.0291748046875 418.7962646484375 519.6251831054688 411.1961669921875 519.237548828125 401.8995971679688 C 518.8892211914062 393.5469360351562 517.7941284179688 384.9186096191406 516.6347045898438 375.7835998535156 C 513.4376831054688 350.5943603515625 509.814208984375 322.0442504882812 521.1800537109375 289.4267578125 C 533.3084716796875 254.6205139160156 554.1171264648438 239.4035186767578 570.8372192382812 227.176513671875 C 581.52685546875 219.3593444824219 590.7586669921875 212.6082611083984 595.3308715820312 202.6156768798828 C 597.72802734375 197.3766021728516 598.7451782226562 191.4802551269531 598.4405517578125 184.5897674560547 C 598.1007690429688 176.9048461914062 596.1395874023438 168.0149230957031 592.4450073242188 157.4121856689453 C 584.5822143554688 134.8474273681641 579.2149658203125 120.9004287719727 573.9195556640625 109.2727661132812 C 570.8988647460938 102.6400146484375 567.9182739257812 96.83542633056641 564.8074340820312 91.52742767333984 C 561.6107788085938 86.07284545898438 558.2676391601562 81.12509918212891 554.5870361328125 76.40142822265625 C 550.905517578125 71.676513671875 546.890625 67.18118286132812 542.3129272460938 62.65859603881836 C 537.857177734375 58.25642776489258 532.8543701171875 53.81642913818359 527.0186767578125 49.08467864990234 C 516.7904663085938 40.79142761230469 504.2194519042969 31.71859550476074 483.6283569335938 17.76884651184082 C 479.4701232910156 14.95176219940186 475.3450317382812 12.48859596252441 471.3677062988281 10.44767951965332 C 467.5310363769531 8.479012489318848 463.7037658691406 6.837679386138916 459.9922790527344 5.569429397583008 C 452.9632873535156 3.167595863342285 446.1888732910156 2.000012636184692 439.2818603515625 2.000012636184692 C 434.8342895507812 2.000012636184692 430.4141845703125 2.481429100036621 425.7689514160156 3.471762418746948 C 421.5699462890625 4.366929054260254 417.2502746582031 5.667679309844971 412.5631103515625 7.448179244995117 C 403.7300415039062 10.80367946624756 394.8965148925781 15.37576293945312 385.54443359375 20.21626281738281 C 361.9040222167969 32.45217895507812 335.1094360351562 46.32059478759766 297.1648559570312 46.32059478759766 C 279.6844482421875 46.32059478759766 263.8069458007812 43.37968063354492 248.6251068115234 37.32976150512695 C 235.3996124267578 32.05942916870117 224.4190216064453 25.11351203918457 214.7310333251953 18.98526191711426 C 200.3228607177734 9.871179580688477 187.8795318603516 2.000012636184692 172.6083679199219 2.000012636184692 C 166.6766967773438 2.000012636184692 160.6262817382812 3.163012504577637 154.1114501953125 5.555428981781006 C 147.012451171875 8.162345886230469 139.5351104736328 12.15742874145508 131.252197265625 17.76884651184082 C 110.6611938476562 31.71859550476074 98.09019470214844 40.79142761230469 87.86194610595703 49.08467864990234 C 82.02619171142578 53.81642913818359 77.02344512939453 58.25642776489258 72.56769561767578 62.65859603881836 C 67.99002838134766 67.18118286132812 63.9751091003418 71.676513671875 60.29360961914062 76.40142822265625 C 56.6130256652832 81.12509918212891 53.26985931396484 86.07284545898438 50.07319259643555 91.52742767333984 C 46.96236038208008 96.83542633056641 43.98169326782227 102.6400146484375 40.96110916137695 109.2727661132812 C 35.66561126708984 120.9004287719727 30.29844284057617 134.8474273681641 22.43552780151367 157.4121856689453 C 14.57286071777344 179.9765167236328 10.123610496521 194.200927734375 7.078277111053467 206.5093383789062 C 5.341526985168457 213.5288391113281 4.094276905059814 219.8560943603516 3.265443801879883 225.8526763916016 C 2.413943767547607 232.0124359130859 2.000110387802124 237.8421783447266 2.000110387802124 243.6750946044922 C 2.000110387802124 249.5079345703125 2.413943767547607 255.3376770019531 3.265443801879883 261.4974365234375 C 4.094276905059814 267.4940185546875 5.341526985168457 273.8212585449219 7.078277111053467 280.8407592773438 C 10.123610496521 293.149169921875 14.57286071777344 307.3735961914062 22.43552780151367 329.9379272460938 C 24.64836120605469 336.2883605957031 27.32802772521973 341.7408447265625 30.40002632141113 346.1441650390625 C 33.30936050415039 350.3141784667969 36.54944229125977 353.5871887207031 40.30552673339844 356.1500854492188 C 43.79885864257812 358.5337524414062 47.63577651977539 360.2299194335938 52.03561019897461 361.3355102539062 C 56.08169555664062 362.3523559570312 60.52377700805664 362.8465270996094 65.61544036865234 362.8463439941406 C 76.71128082275391 362.8460083007812 89.16494750976562 360.4617614746094 102.3498611450195 357.9375 C 117.6317749023438 355.0118408203125 133.4339447021484 351.9865112304688 149.7751922607422 351.9865112304688 C 170.7003631591797 351.9865112304688 188.5386962890625 357.1802673339844 204.3096160888672 367.8645935058594 C 237.8467712402344 390.5850219726562 244.0040283203125 425.7084350585938 249.4364471435547 456.697265625 C 251.0452728271484 465.875 252.56494140625 474.5437622070312 254.7091979980469 482.5362548828125 C 255.8490295410156 486.7852478027344 257.0667724609375 490.4751892089844 258.4319458007812 493.8167724609375 C 259.9411926269531 497.5110168457031 261.5980224609375 500.707275390625 263.4972839355469 503.5881652832031 C 267.6594543457031 509.9015808105469 272.9106140136719 514.5089111328125 279.5509338378906 517.6735229492188 C 283.1500244140625 519.3887329101562 287.2403564453125 520.7008666992188 291.7081909179688 521.5732421875 C 296.4106140136719 522.4915771484375 301.7037048339844 522.9571533203125 307.4402770996094 522.9571533203125 M 307.4402770996094 524.9571533203125 C 218.7853546142578 524.9571533203125 274.9111938476562 418.1107482910156 203.1878662109375 369.5204162597656 C 155.9880676269531 337.5441284179688 103.6762847900391 364.8451232910156 65.61556243896484 364.8463439941406 C 45.84036254882812 364.8469543457031 29.91412734985352 357.4779357910156 20.54694366455078 330.5960083007812 C -6.848889350891113 251.9752655029297 -6.848889350891113 235.3748474121094 20.54694366455078 156.7540893554688 C 47.9428596496582 78.13334655761719 58.40719223022461 64.70334625244141 130.1304473876953 16.11301231384277 C 147.365234375 4.436978340148926 160.8472290039062 1.643880204937886e-05 172.6083679199219 1.643880204937886e-05 C 209.7917327880859 1.643880204937886e-05 229.8133087158203 44.32059478759766 297.1648559570312 44.32059478759766 C 364.510986328125 44.32059478759766 396.4034729003906 1.643880204937886e-05 439.2818908691406 1.643880204937886e-05 C 452.8489074707031 1.643880204937886e-05 467.5109558105469 4.434012889862061 484.7501220703125 16.11301231384277 C 556.4734497070312 64.70334625244141 566.9378051757812 78.13334655761719 594.3336181640625 156.7540893554688 C 621.7295532226562 235.3748474121094 550.4645385742188 211.4640960693359 523.068603515625 290.0848388671875 C 495.6726989746094 368.7055969238281 556.4734497070312 422.6467590332031 484.7501220703125 471.2370910644531 C 413.0267639160156 519.8273315429688 396.0951843261719 524.9571533203125 307.4402770996094 524.9571533203125 Z" stroke="none" fill="#fff"/></g><g transform="translate(-127.836 -190.397)" fill="none" stroke-miterlimit="10"><path d="M329.129,409.55c-57.257-.165-20.89-3.37-49.516-52.463S313.293,299.2,99.867,253.8s-21.709-76.835,0-139.31,29.933-98.846,87.57-112.7,70.846,57.583,141.692,57.583,84.7-71.286,141.692-57.583,80.478,61.849,87.57,112.7-32.632,36.863-56.949,106.846,10.227,100.55-30.621,145.168S386.387,409.715,329.129,409.55Z" stroke="none"/><path d="M 344.3984985351562 408.5901489257812 C 355.9296875 408.5901489257812 368.2111206054688 408.4659729003906 379.8963928222656 407.5649719238281 C 392.1096801757812 406.6233215332031 402.6512145996094 404.8989562988281 412.1235046386719 402.2935180664062 C 422.9672241210938 399.310791015625 432.7046813964844 395.1242370605469 441.8922119140625 389.4946899414062 C 446.7594909667969 386.5123291015625 451.5501403808594 383.0594177246094 456.1311340332031 379.2319641113281 C 460.8710327148438 375.2716064453125 465.5653076171875 370.7611389160156 470.0836791992188 365.8257751464844 C 480.4187622070312 354.5367736816406 486.5380554199219 343.4935913085938 489.3414001464844 331.0723266601562 C 490.5039367675781 325.9215087890625 491.1366882324219 320.478515625 491.3326721191406 313.9426879882812 C 491.5082092285156 308.08740234375 491.3120422363281 302.0779724121094 491.1044006347656 295.7156066894531 C 490.4375915527344 275.2864074707031 489.6817626953125 252.1315002441406 500.4976806640625 221.0048675537109 C 512.1017456054688 187.6101379394531 527.0626831054688 173.3280487060547 539.0840454101562 161.8521423339844 C 545.5335083007812 155.6952362060547 551.1033935546875 150.3779602050781 554.5052490234375 143.4265899658203 C 556.2896728515625 139.7802276611328 557.4029541015625 135.8505096435547 557.90869140625 131.4128723144531 C 558.4635620117188 126.5440521240234 558.297607421875 121.0528717041016 557.401123046875 114.6255035400391 C 553.4833374023438 86.53495788574219 545.1041259765625 63.03268814086914 532.4962158203125 44.77159881591797 C 528.9989624023438 39.70614242553711 525.1275024414062 34.99041366577148 520.9895629882812 30.75532341003418 C 516.681396484375 26.34614181518555 511.9669494628906 22.33786964416504 506.9769592285156 18.84196090698242 C 501.789306640625 15.20741558074951 496.1612243652344 12.02659702301025 490.2488708496094 9.387869834899902 C 484.1100463867188 6.647960662841797 477.4949645996094 4.41659688949585 470.5874938964844 2.755869626998901 C 465.8353271484375 1.613324284553528 461.1819458007812 1.034051537513733 456.756591796875 1.034051537513733 C 451.8114013671875 1.034051537513733 447.0995788574219 1.722597002983093 442.3519592285156 3.13905143737793 C 438.0828552246094 4.412778854370117 433.8561401367188 6.258506298065186 429.4300537109375 8.781869888305664 C 421.1200561523438 13.51932430267334 413.4193115234375 19.90032386779785 405.2663269042969 26.65596008300781 C 386.19677734375 42.45723342895508 364.5828552246094 60.36677932739258 329.1293029785156 60.36677932739258 C 293.7614135742188 60.36677932739258 272.3066711425781 42.49068832397461 253.3775939941406 26.71895980834961 C 245.2424011230469 19.94068717956543 237.5583190917969 13.5383243560791 229.2335815429688 8.781597137451172 C 224.7991333007812 6.24777889251709 220.55712890625 4.394142627716064 216.2653198242188 3.114869594573975 C 211.4910430908203 1.691778779029846 206.7442169189453 0.9999606013298035 201.7536773681641 0.9999606013298035 C 197.2554016113281 0.9999606013298035 192.5174102783203 1.590778827667236 187.6712188720703 2.755869626998901 C 174.694580078125 5.875778675079346 164.0433197021484 10.18050575256348 155.1086730957031 15.91596031188965 C 146.7726745605469 21.26705169677734 139.7773132324219 27.98559761047363 133.7225799560547 36.45559692382812 C 122.0638580322266 52.76514053344727 114.7226791381836 74.22441864013672 105.4284057617188 101.3928680419922 C 103.9474029541016 105.7221450805664 102.4159545898438 110.1986846923828 100.8116760253906 114.8156890869141 C 97.47922515869141 124.4058685302734 89.94022369384766 134.0967712402344 77.76386260986328 144.4419555664062 C 67.134765625 153.4726867675781 54.58613204956055 161.7228698730469 42.45058822631836 169.701416015625 C 30.76913261413574 177.3815002441406 19.73558807373047 184.6355895996094 11.98040580749512 191.6267852783203 C 7.883951187133789 195.3196868896484 5.019132614135742 198.6461486816406 3.22222375869751 201.7962341308594 C 1.288132786750793 205.1866912841797 0.6252237558364868 208.30859375 1.195678234100342 211.3402404785156 C 1.496496438980103 212.93896484375 2.158951044082642 214.5402374267578 3.164769172668457 216.0994110107422 C 4.225314617156982 217.7434997558594 5.702405452728271 219.3968658447266 7.555132865905762 221.0135955810547 C 11.47858715057373 224.4372406005859 17.28822326660156 227.8675079345703 24.82286071777344 231.2091369628906 C 32.75931549072266 234.7289581298828 42.92122268676758 238.2881469726562 55.0261344909668 241.7876892089844 C 67.60258483886719 245.4235992431641 82.75931549072266 249.1350555419922 100.0751342773438 252.8190460205078 C 140.2812194824219 261.3728637695312 171.2311401367188 268.7423095703125 194.6934967041016 275.3485107421875 C 217.0347747802734 281.6390380859375 233.3365020751953 287.4603271484375 244.5302276611328 293.1450500488281 C 266.5003967285156 304.3026733398438 268.3455810546875 314.6482238769531 270.6816711425781 327.7461547851562 C 272.1315002441406 335.8750610351562 273.7747802734375 345.0885009765625 280.4773254394531 356.5833129882812 C 285.449951171875 365.1115112304688 288.9223937988281 372.9837646484375 291.0929565429688 380.6500549316406 C 292.9305725097656 387.1403198242188 293.4442138671875 392.0890502929688 293.8569641113281 396.0654296875 C 294.1590270996094 398.9755859375 294.3976745605469 401.2741394042969 295.0775756835938 402.95458984375 C 295.7488708496094 404.6136779785156 296.8484191894531 405.64794921875 298.7543029785156 406.4130554199219 C 303.1270446777344 408.1685180664062 312.0339660644531 408.5008544921875 329.1322326660156 408.550048828125 C 330.6956787109375 408.5545043945312 332.2488708496094 408.5599670410156 333.7920532226562 408.5653381347656 C 337.4552307128906 408.5780639648438 340.9154052734375 408.5901489257812 344.3984985351562 408.5901489257812 M 344.3984985351562 409.5901794433594 C 339.4157104492188 409.5901794433594 334.3294372558594 409.5650024414062 329.1293029785156 409.550048828125 C 271.8721313476562 409.3853149414062 308.2388610839844 406.1797790527344 279.6134033203125 357.0870666503906 C 250.988037109375 307.9943237304688 313.2928466796875 299.2035827636719 99.86704254150391 253.7971496582031 C -113.5587768554688 208.3906860351562 78.15804290771484 176.9624176025391 99.86704254150391 114.4874114990234 C 121.576042175293 52.01250457763672 129.7997741699219 15.64114284515381 187.4375 1.783596992492676 C 192.5314483642578 0.5588822960853577 197.2833251953125 5.004882950743195e-06 201.7536773681641 5.004882950743195e-06 C 247.8649597167969 5.004882950743195e-06 264.544677734375 59.36677932739258 329.1293029785156 59.36677932739258 C 393.7615966796875 59.36677932739258 410.9630126953125 0.03401494771242142 456.756591796875 0.03401494771242142 C 461.1591796875 0.03401494771242142 465.8224792480469 0.5817647576332092 470.8212280273438 1.783596992492676 C 527.814697265625 15.48632431030273 551.2987670898438 63.63250732421875 558.3916015625 114.4874114990234 C 565.4844970703125 165.3424224853516 525.7599487304688 151.3507843017578 501.4423217773438 221.3331451416016 C 477.1245727539062 291.3155822753906 511.6689453125 321.8831481933594 470.8212280273438 366.5010375976562 C 433.6832885742188 407.066650390625 394.2800598144531 409.5901794433594 344.3984985351562 409.5901794433594 Z" stroke="none" fill="#fff"/></g><g transform="translate(-38.925 -148.696)" fill="none" stroke-miterlimit="10"><path d="M237.585,326.471c-47.013-16.965-22.731-69.667-66.8-99.49s-87.148,9.858-117.029-24.914S-12.919,183.2,4.488,133.295,77.888,7.467,123.971.776s48.8,32.1,107.243,32.1S306.79-5.357,351.2.776,444,44.429,449.687,85.048s-54.437,35.191-73.936,91.088,18.969,103.438-13.784,139.075S284.6,343.436,237.585,326.471Z" stroke="none"/><path d="M 302.7716064453125 338.5938415527344 C 308.2816467285156 338.5938415527344 313.6005859375 338.1441650390625 318.5806579589844 337.2573547363281 C 323.7922973632812 336.3292236328125 328.8161010742188 334.8899230957031 333.5125427246094 332.9794311523438 C 338.4087219238281 330.9876708984375 343.1159057617188 328.4160461425781 347.50341796875 325.3361206054688 C 352.0699157714844 322.1304931640625 356.4405822753906 318.268798828125 360.4940490722656 313.8583679199219 C 377.5678405761719 295.2809143066406 374.5564575195312 273.2742919921875 371.0696105957031 247.7928009033203 C 368.1069641113281 226.1425476074219 364.7490234375 201.6036071777344 373.8627319335938 175.4776000976562 C 383.7948608398438 147.0051727294922 404.3426513671875 133.8763580322266 420.8531494140625 123.3272323608398 C 425.06103515625 120.6386032104492 429.03564453125 118.0991058349609 432.5989074707031 115.480110168457 C 436.5285949707031 112.591796875 439.4145202636719 110.0066680908203 441.6810302734375 107.3446044921875 C 444.2573547363281 104.318733215332 446.0004577636719 101.2012939453125 447.0099182128906 97.81417083740234 C 448.129150390625 94.05854034423828 448.3569030761719 89.97354125976562 447.7060852050781 85.32560729980469 C 446.3722839355469 75.79917144775391 442.5899047851562 66.16573333740234 436.464111328125 56.69285583496094 C 433.5555419921875 52.19510650634766 430.1200866699219 47.75466918945312 426.2533569335938 43.49491882324219 C 422.4656677246094 39.32223129272461 418.2374572753906 35.2929801940918 413.6861572265625 31.51910591125488 C 409.1878967285156 27.78916931152344 404.3514099121094 24.28960609436035 399.3109741210938 21.11766815185547 C 394.2777099609375 17.95016860961914 389.0201110839844 15.09604358673096 383.68408203125 12.63454437255859 C 378.2995300292969 10.15066909790039 372.8096008300781 8.054919242858887 367.3667297363281 6.405606269836426 C 361.8225402832031 4.725606441497803 356.29052734375 3.498044013977051 350.9244689941406 2.756981372833252 C 347.8141479492188 2.327481508255005 344.7208557128906 2.109731435775757 341.7304077148438 2.109731435775757 C 334.1375427246094 2.109731435775757 326.9100341796875 3.443418979644775 318.985107421875 6.306919097900391 C 311.8532104492188 8.883856773376465 305.0520935058594 12.37323188781738 297.8516540527344 16.06748199462891 C 280.6651611328125 24.88516807556152 261.185546875 34.87935638427734 231.2140960693359 34.87935638427734 C 201.1475982666016 34.87935638427734 185.4059143066406 24.72698211669922 171.5173492431641 15.76973152160645 C 165.8457183837891 12.11191940307617 160.4886627197266 8.656981468200684 154.5393524169922 6.122293949127197 C 147.9382781982422 3.309918880462646 141.4677886962891 2.000043869018555 134.1764678955078 2.000043869018555 C 131.0455322265625 2.000043869018555 127.7086563110352 2.254044055938721 124.2584686279297 2.755043983459473 C 113.6424102783203 4.296481609344482 101.9460983276367 9.727731704711914 89.49446868896484 18.89791870117188 C 83.72859954833984 23.14429473876953 77.80753326416016 28.20029449462891 71.89578247070312 33.92547988891602 C 66.24578094482422 39.39716720581055 60.56334686279297 45.51860809326172 55.00628280639648 52.11985778808594 C 44.44815826416016 64.66179656982422 34.32891082763672 78.96929168701172 25.74240875244141 93.49566650390625 C 17.35834693908691 107.6795425415039 10.66184711456299 121.6696701049805 6.37672233581543 133.9536743164062 C 3.751472234725952 141.4795989990234 2.33709716796875 147.5722351074219 2.05290961265564 152.5797271728516 C 1.800472140312195 157.0285491943359 2.452909708023071 160.6336669921875 4.047534465789795 163.6011657714844 C 7.132409572601318 169.3418579101562 13.62722206115723 172.56591796875 21.84997177124023 176.6477355957031 C 31.71590995788574 181.5452880859375 43.99441146850586 187.6404876708984 55.27097320556641 200.7627258300781 C 60.0589714050293 206.3344879150391 65.40190887451172 210.1735992431641 71.60509490966797 212.4996643066406 C 76.86490631103516 214.471923828125 82.75734710693359 215.3904876708984 90.14897155761719 215.3903503417969 C 95.96503448486328 215.3902893066406 101.9531631469727 214.8344879150391 108.2928466796875 214.2461090087891 C 114.9755935668945 213.6259155273438 121.8859100341797 212.9845428466797 128.9595947265625 212.9845428466797 C 139.5675354003906 212.9845428466797 155.5605316162109 214.2637329101562 171.9044647216797 225.3241729736328 C 193.6282196044922 240.0254211425781 199.3201599121094 260.5299072265625 204.3421020507812 278.62060546875 C 207.1004028320312 288.5570983886719 209.7057189941406 297.9424743652344 214.5986022949219 305.9343566894531 C 217.1814727783203 310.1531066894531 220.1930389404297 313.6444702148438 223.8054046630859 316.6080322265625 C 227.8526611328125 319.9283447265625 232.5819091796875 322.5390930175781 238.2634124755859 324.58935546875 C 250.7357788085938 329.0902404785156 261.5877990722656 332.3799133300781 271.4395446777344 334.646484375 C 282.9847106933594 337.3026733398438 293.2335205078125 338.5938415527344 302.7716064453125 338.5938415527344 M 302.7716064453125 340.5938415527344 C 282.3027648925781 340.5938415527344 260.2215270996094 334.6395568847656 237.5845336914062 326.4706115722656 C 190.5717163085938 309.5052185058594 214.8531036376953 256.8039855957031 170.7835388183594 226.9805450439453 C 156.6056213378906 217.3858795166016 142.5259094238281 214.9845428466797 128.9595947265625 214.9845428466797 C 100.3573913574219 214.9845581054688 74.02217102050781 225.6518249511719 53.75409698486328 202.0662384033203 C 23.87265968322754 167.2937927246094 -12.91865253448486 183.1954803466797 4.488347053527832 133.294921875 C 21.89541053771973 83.39435577392578 77.88803100585938 7.467043876647949 123.9710998535156 0.7757939696311951 C 127.6275863647461 0.2448720037937164 131.0165863037109 3.173828008584678e-05 134.1764831542969 3.173828008584678e-05 C 170.8410186767578 3.173828008584678e-05 177.4042663574219 32.87935638427734 231.2140960693359 32.87935638427734 C 285.3200073242188 32.87935638427734 304.0221557617188 0.1097619608044624 341.7304077148438 0.1097619608044624 C 344.756103515625 0.1097619608044624 347.8994140625 0.3202638924121857 351.1980285644531 0.7757939696311951 C 395.6062316894531 6.908356666564941 443.9995422363281 44.42898178100586 449.6867980957031 85.04829406738281 C 455.3740844726562 125.667610168457 395.2498474121094 120.2394180297852 375.7510986328125 176.1363525390625 C 356.2522888183594 232.0333557128906 394.7197265625 279.5741577148438 361.9665832519531 315.2117309570312 C 344.9843139648438 333.6895751953125 324.8127746582031 340.5938415527344 302.7716064453125 340.5938415527344 Z" stroke="none" fill="#fff"/></g><g transform="translate(-12.853 -121.236)" fill="none" stroke-miterlimit="10"><path d="M271.382,299.046c-45.367,0-76.8-87.922-113.5-112.836S99.25,166.252,64.416,166.252s-75.6-37.981-61.583-78.293S83.79,29.92,120.493,5.006s41.686,51.266,87.054,51.266S265.26-19.908,301.963,5.006,373.7-13.9,387.715,26.415s-52.123,78.754-66.143,119.066,17.094,67.969-19.609,92.883S316.75,299.046,271.382,299.046Z" stroke="none"/><path d="M 271.3824462890625 298.0457458496094 C 276.2836608886719 298.0457458496094 280.09130859375 297.6341247558594 283.0228881835938 296.7874450683594 C 285.6241455078125 296.0360717773438 287.4621887207031 294.959228515625 288.64208984375 293.4952392578125 C 289.9217834472656 291.9074401855469 290.4619750976562 289.8163452148438 290.3422546386719 286.9143981933594 C 290.2287292480469 284.1648559570312 289.5338745117188 280.9687194824219 288.7981872558594 277.5849304199219 C 286.1399230957031 265.3579711914062 282.8316040039062 250.1411285400391 301.4014587402344 237.5360260009766 C 311.1180419921875 230.9404449462891 316.6065673828125 223.8053894042969 318.6742553710938 215.08154296875 C 319.528076171875 211.4790802001953 319.8332824707031 207.5798645019531 319.6348266601562 202.8106079101562 C 319.4565124511719 198.5267639160156 318.8960266113281 194.1021728515625 318.3026733398438 189.4177551269531 C 316.6670227050781 176.5053863525391 314.8132019042969 161.8701782226562 320.6272888183594 145.1521301269531 C 326.2511901855469 128.9810791015625 340.2774658203125 112.9818115234375 353.8418884277344 97.50928497314453 C 358.956298828125 91.67539215087891 364.244873046875 85.64291381835938 368.973876953125 79.71944427490234 C 374.2578735351562 73.10081481933594 378.2816162109375 67.30554962158203 381.2750244140625 62.00239181518555 C 384.8412475585938 55.68465423583984 387.0593872070312 49.91591644287109 388.0563049316406 44.36655044555664 C 388.5928344726562 41.380126953125 388.7682495117188 38.4214973449707 388.5776672363281 35.5728645324707 C 388.3780822753906 32.58886337280273 387.7698669433594 29.61812782287598 386.77001953125 26.74312782287598 C 384.4889831542969 20.18412780761719 381.57373046875 15.65891742706299 377.857666015625 12.90891742706299 C 374.669189453125 10.54939079284668 370.8731384277344 9.450390815734863 365.9111938476562 9.450390815734863 C 361.1282043457031 9.450390815734863 355.7893981933594 10.47702217102051 350.1371459960938 11.56396961212158 C 343.4151916503906 12.85654830932617 336.4643859863281 14.19318008422852 329.0492553710938 14.19318008422852 C 318.732177734375 14.19318008422852 309.6885681152344 11.45870685577393 301.4014587402344 5.833443641662598 C 296.6100463867188 2.581074953079224 292.1519165039062 1.000022411346436 287.7723999023438 1.000022411346436 C 285.0157165527344 1.000022411346436 282.3305053710938 1.623075008392334 279.563232421875 2.904864549636841 C 277.0425720214844 4.072390556335449 274.4936218261719 5.771180152893066 271.7706604003906 8.098233222961426 C 266.6195068359375 12.50054836273193 261.6567687988281 18.4642333984375 256.4027099609375 24.77807426452637 C 243.7284545898438 40.00875854492188 229.3631439208984 57.27160263061523 207.5470275878906 57.27160263061523 C 185.40087890625 57.27160263061523 172.7385559082031 39.65507507324219 161.5668792724609 24.11233901977539 C 157.1328277587891 17.94344329833984 152.9446716308594 12.11660099029541 148.4972381591797 7.844706535339355 C 143.6356658935547 3.174969673156738 139.1208190917969 1.000022411346436 134.288818359375 1.000022411346436 C 132.3114013671875 1.000022411346436 130.2361450195312 1.381075024604797 128.1205596923828 2.132653951644897 C 125.874397277832 2.930654048919678 123.4972457885742 4.175759315490723 121.0551376342773 5.833443641662598 C 109.5426635742188 13.64807510375977 95.32077026367188 20.63628578186035 80.26377105712891 28.03481101989746 C 63.99208450317383 36.03023147583008 47.16634750366211 44.2978630065918 33.26945495605469 53.98749542236328 C 25.79455947875977 59.19939041137695 19.84666442871094 64.33202362060547 15.08582210540771 69.67875671386719 C 12.50882244110107 72.57296752929688 10.26713752746582 75.56297302246094 8.423190116882324 78.56570434570312 C 6.489190578460693 81.71501922607422 4.926348209381104 84.98602294921875 3.778085231781006 88.28786468505859 C 0.9007694125175476 96.56128692626953 0.2532431185245514 105.0652847290039 1.853506326675415 113.5637054443359 C 2.59640097618103 117.5090255737305 3.831769466400146 121.4523391723633 5.525243282318115 125.2840728759766 C 7.156137943267822 128.9741821289062 9.224874496459961 132.5918579101562 11.67397975921631 136.0366058349609 C 24.09798049926758 153.51123046875 45.29350662231445 165.2520294189453 64.41635131835938 165.2520294189453 C 69.55966186523438 165.2520294189453 74.40798187255859 165.1440277099609 79.09671783447266 165.0395965576172 C 83.46229553222656 164.9423980712891 87.58576965332031 164.8505554199219 91.66071319580078 164.8505554199219 C 114.7980880737305 164.8505554199219 133.1426086425781 168.2101745605469 158.4408264160156 185.3825531005859 C 173.1040802001953 195.3358612060547 186.6274566650391 214.7980194091797 200.9448699951172 235.4028625488281 C 211.5898742675781 250.7225036621094 222.5972900390625 266.5637512207031 234.2372436523438 278.4056091308594 C 240.4809875488281 284.7575378417969 246.3511352539062 289.4220886230469 252.1830902099609 292.6656494140625 C 255.3287658691406 294.4151916503906 258.4974975585938 295.7532958984375 261.6012878417969 296.6427612304688 C 264.8499145507812 297.5736999511719 268.1408081054688 298.0457458496094 271.3824462890625 298.0457458496094 M 271.3824462890625 299.0457458496094 C 226.0150299072266 299.0457458496094 194.5821838378906 211.1237640380859 157.8791961669922 186.2099151611328 C 131.6243591308594 168.3882141113281 112.926399230957 165.8505554199219 91.66069793701172 165.8505554199219 C 83.19795989990234 165.8505554199219 74.33250427246094 166.2520294189453 64.41635131835938 166.2520294189453 C 29.58218955993652 166.2520294189453 -11.18575668334961 128.2708587646484 2.833558797836304 87.95938873291016 C 16.85282135009766 47.64791870117188 83.79050445556641 29.91996955871582 120.4935073852539 5.006074905395508 C 125.6503829956055 1.505599737167358 130.184326171875 2.318050974281505e-05 134.2888336181641 2.318050974281505e-05 C 159.3972778320312 2.318050974281505e-05 168.5539093017578 56.27160263061523 207.5470275878906 56.27160263061523 C 246.5374298095703 56.27160263061523 261.13916015625 2.318050974281505e-05 287.7723693847656 2.318050974281505e-05 C 292.1283264160156 2.318050974281505e-05 296.803955078125 1.504079222679138 301.9630737304688 5.006074905395508 C 311.1993408203125 11.27560520172119 320.3331298828125 13.19317150115967 329.0492248535156 13.19317150115967 C 354.9692077636719 13.19317054748535 377.2231750488281 -3.752530813217163 387.7145690917969 26.41465377807617 C 401.7338256835938 66.72618103027344 335.5911254882812 105.169075012207 321.5718078613281 145.4806060791016 C 307.5525207519531 185.7920684814453 338.6661376953125 213.4495544433594 301.9630737304688 238.3633880615234 C 265.2600708007812 263.2772216796875 316.7498779296875 299.0457458496094 271.3824462890625 299.0457458496094 Z" stroke="none" fill="#fff"/></g></g></g><rect width="1366" height="459" transform="translate(0 2007)" fill="none"/></g></svg>