<svg xmlns="http://www.w3.org/2000/svg" width="1385.973" height="165.036" viewBox="0 0 1385.973 165.036"><g transform="translate(-143.523 -6627.521)"><g transform="translate(1378.028 6667.171)" fill="none" stroke="#b1d7ff" stroke-width="4"><circle cx="6.193" cy="6.193" r="6.193" stroke="none"/><circle cx="6.193" cy="6.193" r="4.193" fill="none"/></g><g transform="translate(143.523 6687.539) rotate(-30)" fill="none" stroke="#b1d7ff" stroke-width="2"><rect width="16.808" height="16.808" stroke="none"/><rect x="1" y="1" width="14.808" height="14.808" fill="none"/></g><g transform="translate(610.724 6746.521)" fill="none" stroke="#f3f3f3" stroke-width="5"><circle cx="14.597" cy="14.597" r="14.597" stroke="none"/><circle cx="14.597" cy="14.597" r="12.097" fill="none"/></g><path d="M1613,6721.158l10.1,16.639,14.653-20.391Z" transform="translate(-109.352 30.627)" fill="none" stroke="#f3f3f3" stroke-linecap="round" stroke-width="1"/><g transform="translate(369.725 6627.521)" fill="none" stroke="#f3f3f3" stroke-width="5"><circle cx="14.597" cy="14.597" r="14.597" stroke="none"/><circle cx="14.597" cy="14.597" r="12.097" fill="none"/></g><g transform="translate(1210.029 6780.172)" fill="none"><path d="M6.193,0A6.193,6.193,0,1,1,0,6.193,6.193,6.193,0,0,1,6.193,0Z" stroke="none"/><path d="M 6.192533016204834 4.000002861022949 C 4.98356294631958 4.000002861022949 4.000002861022949 4.98356294631958 4.000002861022949 6.192533016204834 C 4.000002861022949 7.401503086090088 4.98356294631958 8.385063171386719 6.192533016204834 8.385063171386719 C 7.401503086090088 8.385063171386719 8.385063171386719 7.401503086090088 8.385063171386719 6.192533016204834 C 8.385063171386719 4.98356294631958 7.401503086090088 4.000002861022949 6.192533016204834 4.000002861022949 M 6.192533016204834 2.86102294921875e-06 C 9.61257266998291 2.86102294921875e-06 12.38506317138672 2.772493362426758 12.38506317138672 6.192533016204834 C 12.38506317138672 9.61257266998291 9.61257266998291 12.38506317138672 6.192533016204834 12.38506317138672 C 2.772493362426758 12.38506317138672 2.86102294921875e-06 9.61257266998291 2.86102294921875e-06 6.192533016204834 C 2.86102294921875e-06 2.772493362426758 2.772493362426758 2.86102294921875e-06 6.192533016204834 2.86102294921875e-06 Z" stroke="none" fill="#fff6dd"/></g></g></svg>