<svg xmlns="http://www.w3.org/2000/svg" xmlns:xlink="http://www.w3.org/1999/xlink" width="1088" height="698" viewBox="0 0 1088 698"><defs><clipPath id="a"><rect width="247" height="132" transform="translate(371 1595)" fill="#004890"/></clipPath><clipPath id="b"><rect width="236" height="126" transform="translate(371 1595)" fill="#fff6dd"/></clipPath></defs><g transform="translate(-139 -1611)"><rect width="1088" height="698" transform="translate(139 1611)" fill="none"/><g transform="translate(37 16)" opacity="0.08" clip-path="url(#a)"><path d="M156.564,0H30.012A30.1,30.1,0,0,0,0,30.012v85.035a30.1,30.1,0,0,0,30.012,30.012h75.954a5.062,5.062,0,0,1,4.942,6.2,127.156,127.156,0,0,1-9.653,26.94,4.612,4.612,0,0,0,6.562,5.973c11.432-7.075,27.7-18.916,41.394-35.655a9.492,9.492,0,0,1,7.352-3.458,30.1,30.1,0,0,0,30.012-30.012V30.012A30.1,30.1,0,0,0,156.564,0Z" transform="translate(449.605 1511.345) rotate(25)" fill="#004890"/><g transform="translate(449.86 1575.364) rotate(25)" opacity="0.7"><path d="M121.667,6.869H3.435A3.435,3.435,0,0,1,3.435,0H121.668a3.435,3.435,0,1,1,0,6.869Z" fill="#004890"/><path d="M121.667,6.869H3.435A3.435,3.435,0,1,1,3.435,0H121.668a3.435,3.435,0,1,1,0,6.869Z" transform="translate(0 15.8)" fill="#004890"/><path d="M121.667,6.869H3.435A3.435,3.435,0,0,1,3.435,0H121.668a3.435,3.435,0,1,1,0,6.869Z" transform="translate(0 31.601)" fill="#004890"/><path d="M62.551,6.869H3.435A3.435,3.435,0,1,1,3.435,0H62.551a3.435,3.435,0,1,1,0,6.869Z" transform="translate(29.558 47.4)" fill="#004890"/></g></g><g transform="translate(48 16)" clip-path="url(#b)"><path d="M149.447,91.515H28.648A28.732,28.732,0,0,0,0,120.163v81.169A28.732,28.732,0,0,0,28.648,229.98h72.5a4.832,4.832,0,0,1,4.718,5.918,121.376,121.376,0,0,1-9.214,25.716,4.4,4.4,0,0,0,6.264,5.7c10.912-6.753,26.437-18.056,39.512-34.034a9.061,9.061,0,0,1,7.018-3.3A28.732,28.732,0,0,0,178.1,201.332V120.163a28.732,28.732,0,0,0-28.648-28.648Z" transform="translate(484.708 1432.207) rotate(25)" fill="#fff6dd"/><g transform="translate(490.083 1318.567) rotate(25)" opacity="0.7"><path d="M185.339,258.617H72.481a3.279,3.279,0,1,1,0-6.557H185.339a3.279,3.279,0,1,1,0,6.557Z" transform="translate(0 0)" fill="#fff"/><path d="M185.339,294.158H72.481a3.279,3.279,0,1,1,0-6.557H185.339a3.279,3.279,0,1,1,0,6.557Z" transform="translate(0 -20.459)" fill="#fff"/><path d="M185.339,329.7H72.481a3.279,3.279,0,0,1,0-6.557H185.339a3.279,3.279,0,1,1,0,6.557Z" transform="translate(0 -40.918)" fill="#fff"/><path d="M195.4,365.239H138.968a3.279,3.279,0,1,1,0-6.557H195.4a3.279,3.279,0,1,1,0,6.557Z" transform="translate(-38.273 -61.376)" fill="#fff"/></g></g></g></svg>