<svg xmlns="http://www.w3.org/2000/svg" xmlns:xlink="http://www.w3.org/1999/xlink" width="93" height="208" viewBox="0 0 93 208"><defs><clipPath id="a"><rect width="93" height="208" fill="none"/></clipPath></defs><g transform="translate(0 -1580)"><g transform="translate(0 1580)" clip-path="url(#a)"><g transform="translate(-1801 -93)"><circle cx="4" cy="4" r="4" transform="translate(1801 93)" fill="#ebeaee"/></g><g transform="translate(-1761 -93)"><circle cx="4" cy="4" r="4" transform="translate(1801 93)" fill="#ebeaee"/></g><g transform="translate(-1721 -93)"><circle cx="4" cy="4" r="4" transform="translate(1801 93)" fill="#ebeaee"/></g><g transform="translate(-1801 -53)"><circle cx="4" cy="4" r="4" transform="translate(1801 93)" fill="#ebeaee"/></g><g transform="translate(-1761 -53)"><circle cx="4" cy="4" r="4" transform="translate(1801 93)" fill="#ebeaee"/></g><g transform="translate(-1721 -53)"><circle cx="4" cy="4" r="4" transform="translate(1801 93)" fill="#ebeaee"/></g><g transform="translate(-1801 -13)"><circle cx="4" cy="4" r="4" transform="translate(1801 93)" fill="#ebeaee"/></g><g transform="translate(-1761 -13)"><circle cx="4" cy="4" r="4" transform="translate(1801 93)" fill="#ebeaee"/></g><g transform="translate(-1721 -13)"><circle cx="4" cy="4" r="4" transform="translate(1801 93)" fill="#ebeaee"/></g><g transform="translate(-1801 27)"><circle cx="4" cy="4" r="4" transform="translate(1801 93)" fill="#ebeaee"/></g><g transform="translate(-1761 27)"><circle cx="4" cy="4" r="4" transform="translate(1801 93)" fill="#ebeaee"/></g><g transform="translate(-1721 27)"><circle cx="4" cy="4" r="4" transform="translate(1801 93)" fill="#ebeaee"/></g><g transform="translate(-1801 67)"><circle cx="4" cy="4" r="4" transform="translate(1801 93)" fill="#ebeaee"/></g><g transform="translate(-1761 67)"><circle cx="4" cy="4" r="4" transform="translate(1801 93)" fill="#ebeaee"/></g><g transform="translate(-1721 67)"><circle cx="4" cy="4" r="4" transform="translate(1801 93)" fill="#ebeaee"/></g><g transform="translate(-1801 107)"><circle cx="4" cy="4" r="4" transform="translate(1801 93)" fill="#ebeaee"/></g><g transform="translate(-1761 107)"><circle cx="4" cy="4" r="4" transform="translate(1801 93)" fill="#ebeaee"/></g><g transform="translate(-1721 107)"><circle cx="4" cy="4" r="4" transform="translate(1801 93)" fill="#ebeaee"/></g></g></g></svg>