<svg xmlns="http://www.w3.org/2000/svg" width="80" height="59.874" viewBox="0 0 80 59.874"><g transform="translate(-189.957 -124.019)"><g transform="translate(189.957 124.019)"><path d="M262.227,146.054a15.4,15.4,0,0,0-.21-2.613,16.866,16.866,0,0,0-1.555-4.732,20.544,20.544,0,0,0-3.122-4.54,25.87,25.87,0,0,0-3.062-2.882,27.544,27.544,0,0,0-2.884-2.022,30.154,30.154,0,0,0-3.888-2.053c-.945-.4-1.9-.777-2.865-1.143-.621-.235-1.25-.458-1.888-.641q-1.363-.389-2.746-.71c-.84-.19-1.69-.342-2.538-.5-.428-.079-.862-.126-1.293-.193a.552.552,0,0,0-.522.19q-2.291,2.329-4.6,4.642c-.357.363-.717.722-1.081,1.088-.109-.1-.2-.18-.29-.268q-1.249-1.251-2.5-2.5c-.986-.986-1.976-1.972-2.958-2.965a.377.377,0,0,0-.379-.133c-.314.062-.636.086-.953.145-.909.166-1.824.3-2.724.518-1.291.309-2.574.658-3.834,1.088q-1.64.56-3.227,1.249c-.974.423-1.921.9-2.848,1.414a29.235,29.235,0,0,0-2.9,1.82,28.674,28.674,0,0,0-2.5,2,25.263,25.263,0,0,0-2.272,2.317,21.749,21.749,0,0,0-1.893,2.6,16.977,16.977,0,0,0-2.277,5.68,17.327,17.327,0,0,0-.34,3.195c-.024,1.991-.007,3.984-.007,5.977,0,.109-.01.218-.017.344-.131-.029-.222-.047-.312-.069a6.324,6.324,0,0,0-2.441-.178,6.031,6.031,0,0,0-2.124.68,6.222,6.222,0,0,0-2.2,1.993,5.577,5.577,0,0,0-.907,2.171s0,.009,0,.012a5.472,5.472,0,0,0,.4,3.414,6.38,6.38,0,0,0,2.022,2.416,5.807,5.807,0,0,0,2.976,1.095c.276.019.557-.009.833.005a5.1,5.1,0,0,0,2.214-.466.593.593,0,0,1,.674.169,3.113,3.113,0,0,0,1.067.746,4.4,4.4,0,0,0,1.964.427c2.436-.009,4.872,0,7.308-.012a4.123,4.123,0,0,0,1.078-.143,2.7,2.7,0,0,0,1.965-1.834.572.572,0,0,1,.183-.338v2.323h.4c2.384,0,4.767.005,7.153,0a6,6,0,0,0,1.086-.083,2.773,2.773,0,0,0,1.579-.882,3.105,3.105,0,0,0,.79-2.117q-.013-3.52,0-7.039a3.854,3.854,0,0,0-.141-1.081,1.832,1.832,0,0,0-1.265-1.35,2.75,2.75,0,0,0-1.3-.047,1.807,1.807,0,0,0-1.379,1.1,3.347,3.347,0,0,0-.278,1.368c-.009,1.637,0,3.276-.007,4.915a1.046,1.046,0,0,1-.069.421.7.7,0,0,1-.695.433c-1.884-.007-3.77,0-5.655-.005a1.349,1.349,0,0,1-.2-.035v-.352c0-1.792,0-3.588-.007-5.383a4.528,4.528,0,0,0-.128-1.019,1.857,1.857,0,0,0-1.219-1.359,2.586,2.586,0,0,0-1.293-.1,1.833,1.833,0,0,0-1.357.943,2.877,2.877,0,0,0-.353,1.47c-.017,1.053-.005,2.105-.005,3.16,0,.6,0,1.211.005,1.815a.774.774,0,0,1-.836.863c-1.438-.014-2.874,0-4.31-.007-.488,0-.7-.221-.7-.7,0-3.744-.01-7.486,0-11.23.009-3.25.183-6.313,1.824-9.218a16.8,16.8,0,0,1,3.11-3.929,17.892,17.892,0,0,1,2.241-1.839c.615-.421,1.234-.844,1.874-1.23a26.2,26.2,0,0,1,2.714-1.4,35.18,35.18,0,0,1,4.3-1.589,37.123,37.123,0,0,1,3.82-.912c.583-.109,1.171-.178,1.755-.271a.56.56,0,0,1,.524.192c.871.886,1.748,1.761,2.626,2.639.191.192.383.387.578.575a.187.187,0,0,1,0,.266c-.153.147-.309.292-.459.44a.589.589,0,0,1-.4.173c-1.06.016-2.124.041-3.184.064-.081,0-.16.016-.247.026-.007.078-.014.14-.016.2-.024,1.067-.052,2.134-.065,3.2a.605.605,0,0,1-.2.458c-.048.041-.084.092-.128.135q-1.024,1.075-2.052,2.148a1.742,1.742,0,0,0-.131.18c.124.136.233.261.345.38.655.684,1.314,1.369,1.971,2.05a.554.554,0,0,1,.195.4c.01,1.074.041,2.146.064,3.221,0,.081.016.162.026.275.559,0,1.1-.005,1.64,0,.6.01,1.207.038,1.81.048a.532.532,0,0,1,.381.173c.686.668,1.379,1.333,2.071,2,.117.112.245.214.378.332.14-.119.264-.214.374-.321.64-.611,1.293-1.211,1.908-1.848a1.111,1.111,0,0,1,.883-.356,1.519,1.519,0,0,0,.153,0c.75-.009,1.5-.017,2.25-.031.238-.005.472-.031.722-.048.009-.1.021-.18.022-.261.024-1.036.052-2.07.066-3.1a.7.7,0,0,1,.2-.487c.679-.694,1.346-1.394,2.015-2.095.1-.1.193-.214.309-.338-.19-.205-.362-.4-.541-.584-.567-.594-1.134-1.193-1.714-1.779a.921.921,0,0,1-.276-.692c-.007-1.021-.04-2.045-.062-3.065,0-.06-.012-.119-.019-.2-.1-.007-.195-.017-.286-.019-1.04-.022-2.083-.043-3.122-.069a.5.5,0,0,1-.269-.041,5.046,5.046,0,0,1-.683-.66.634.634,0,0,1,.072-.105c1.133-1.138,2.269-2.271,3.4-3.411a.4.4,0,0,1,.365-.119c.35.047.7.085,1.052.138,1.274.2,2.534.468,3.786.784a28.6,28.6,0,0,1,3.477,1.095c.95.373,1.884.781,2.812,1.2.5.226.976.513,1.46.774a21.85,21.85,0,0,1,2.85,1.855,20.237,20.237,0,0,1,2.624,2.388,16.431,16.431,0,0,1,2.05,2.751c2.384,4.022,1.869,8.534,1.865,13.008,0,2.447.007,4.89.007,7.337,0,.124,0,.249,0,.373a.626.626,0,0,1-.721.672q-.716,0-1.438,0c-.324,0-.324.005-.46-.3a9.955,9.955,0,0,0-.448-.962,6.4,6.4,0,0,0-1.053-1.349,5.551,5.551,0,0,0-2.321-1.344,6.632,6.632,0,0,0-1.786-.254,6.363,6.363,0,0,0-2.419.375,5.812,5.812,0,0,0-2.888,2.383,9.126,9.126,0,0,0-.61,1.226.334.334,0,0,1-.355.228c-1.01-.009-2.019,0-3.029-.005-.293,0-.293,0-.3-.3q-.028-1.419-.059-2.846a7.57,7.57,0,0,0-.241-1.82,5.379,5.379,0,0,0-1.886-2.87,6.41,6.41,0,0,0-6.525-.929,7.819,7.819,0,0,0-2.271,1.566c-1.007.983-2.026,2.459-1.707,3.948a2.178,2.178,0,0,0,1.993,1.53,1.383,1.383,0,0,0,.795-.1,2.272,2.272,0,0,0,.974-.979c.119-.245.228-.492.343-.739a3.782,3.782,0,0,1,.867-1.188,2.07,2.07,0,0,1,.693-.435,2.337,2.337,0,0,1,1.59.04,1.392,1.392,0,0,1,.845.744,3.593,3.593,0,0,1,.345,1.414c.021.929,0,1.856,0,2.785a1.893,1.893,0,0,1-.033.235h-.352c-1.717,0-3.436,0-5.155,0a8.226,8.226,0,0,0-1.424.117,1.834,1.834,0,0,0-1.143.7,2.2,2.2,0,0,0-.347,1.758,1.8,1.8,0,0,0,.71,1.242,2.564,2.564,0,0,0,1.541.509q6.682-.008,13.371,0c.205,0,.455-.054.607.043s.224.338.31.525a6.257,6.257,0,0,0,1.641,2.176,5.7,5.7,0,0,0,2.307,1.19,6.728,6.728,0,0,0,2.939.028,5.873,5.873,0,0,0,2.758-1.242A5.141,5.141,0,0,0,255,165.381c.035-.1.079-.193.121-.29.105-.249.138-.266.395-.249s.5.036.748.035c.393,0,.786-.035,1.179-.035a7.49,7.49,0,0,0,2.126-.288,3.407,3.407,0,0,0,2.465-2.5,7.022,7.022,0,0,0,.191-1.889Q262.217,153.11,262.227,146.054Zm-66.1,14.06a2,2,0,1,1,2-2A2,2,0,0,1,196.128,160.114Zm37.265-24.893a.97.97,0,0,1,.14.029c.009.221.022.439.028.654.007.376.014.751.012,1.124a.529.529,0,0,0,.159.42c.366.371.719.753,1.076,1.131.072.074.138.15.212.235a2.243,2.243,0,0,1-.145.185c-.371.394-.741.793-1.121,1.178a.581.581,0,0,0-.184.44c0,.511-.014,1.022-.022,1.532,0,.083-.015.164-.026.264-.3.021-.586.047-.876.059-.31.01-.624.017-.936.01a.568.568,0,0,0-.44.18c-.429.425-.874.832-1.324,1.259a2.139,2.139,0,0,1-.172-.13c-.4-.38-.805-.756-1.2-1.145a.558.558,0,0,0-.414-.164c-.553-.01-1.105-.035-1.655-.052-.05,0-.1-.014-.176-.024-.012-.223-.026-.44-.031-.654-.007-.375-.014-.751-.009-1.126a.569.569,0,0,0-.178-.442c-.428-.44-.843-.893-1.29-1.362.072-.078.148-.161.224-.24.36-.376.712-.76,1.079-1.128a.558.558,0,0,0,.164-.42c0-.522.014-1.041.026-1.563a2.385,2.385,0,0,1,.022-.249c.634-.021,1.238-.043,1.84-.054a.516.516,0,0,0,.384-.159c.44-.428.888-.844,1.353-1.283a1.362,1.362,0,0,1,.155.114c.4.38.809.753,1.2,1.145a.609.609,0,0,0,.469.183C232.291,135.176,232.839,135.2,233.393,135.221Zm15.837,25.433" transform="translate(-189.957 -124.019)" fill="#8ec641"/><path d="M271.751,415.847c-.284-.047-.57-.086-.853-.142a3.445,3.445,0,0,1-1.491-.6,2.41,2.41,0,0,1-.9-1.453,4.1,4.1,0,0,1-.082-.837q-.008-4.066,0-8.133v-.333a24.566,24.566,0,0,1,3.368-.021c0,.112.012.234.012.355q0,3.832,0,7.664c0,.1,0,.209,0,.313a.7.7,0,0,0,.686.739c.3.027.6.046.9.047q23.924,0,47.848,0h.471c.006.823.02,1.61-.009,2.4Z" transform="translate(-254.876 -355.974)" fill="#004890"/><path d="M631.535,217.992a3.265,3.265,0,0,1-.381,1.269,2.015,2.015,0,0,1-.828.824,2.472,2.472,0,0,1-1.227.2,2.59,2.59,0,0,1-1.19-.3,1.888,1.888,0,0,1-.77-.89,3.282,3.282,0,0,1-.207-1.3c.01-1.926.01-3.852.01-5.779q0-2.946,0-5.892,0-1.355,0-2.71c0-3.28-.048-6.566-.01-9.843a2.961,2.961,0,0,1,.816-2.316,2.358,2.358,0,0,1,2.2-.453,2.094,2.094,0,0,1,1.266,1.071,7.823,7.823,0,0,1,.341,3.435v19.6c0,.772-.015,1.546.008,2.316A5.647,5.647,0,0,1,631.535,217.992Z" transform="translate(-551.579 -179.218)" fill="#8ec641"/><path d="M593.823,389.709h-3.346a8.934,8.934,0,0,1-.02-1.014c-.005-.344,0-.688,0-1.033V382.43c-.245,0-.469-.01-.694-.013s-.436,0-.673,0v-2.181h1.3a.785.785,0,0,0-.685-1.1l-.031,0a.771.771,0,0,0-.943.816c-.009.114-.006.229-.006.344q0,4.522,0,9.043v.331a31.7,31.7,0,0,1-3.358.033,1.926,1.926,0,0,1-.026-.231c0-3.1-.007-6.2,0-9.294a3.271,3.271,0,0,1,1.11-2.559,4.019,4.019,0,0,1,2.066-.967,6.061,6.061,0,0,1,2.422.062,3.5,3.5,0,0,1,2.8,2.7,5.184,5.184,0,0,1,.094.994q.011,4.506,0,9.012C593.836,389.509,593.829,389.591,593.823,389.709Z" transform="translate(-517.177 -333.04)" fill="#004890"/><path d="M220.458,389.782h-3.374c-.005-.81,0-1.609,0-2.408s0-1.627,0-2.44v-2.423h-1.33a12.467,12.467,0,0,1-.028-2.2c.436-.025.88,0,1.34-.01.006-.08.017-.161.017-.242a.723.723,0,0,0-.4-.747,1.036,1.036,0,0,0-1.045.055.717.717,0,0,0-.284.569c-.012.145-.007.292-.007.438q0,4.5,0,9.009v.362a30.316,30.316,0,0,1-3.357.036,1.877,1.877,0,0,1-.027-.23c0-3.139-.016-6.278.009-9.416a3.216,3.216,0,0,1,1.621-2.826,4.38,4.38,0,0,1,2.222-.65,6.192,6.192,0,0,1,1.739.125,4.125,4.125,0,0,1,1.837.954,3.2,3.2,0,0,1,1.015,1.958,6.994,6.994,0,0,1,.055.9q.006,4.411,0,8.822Z" transform="translate(-208.154 -333.111)" fill="#004890"/><path d="M309.946,406.992l-.4,4.995h-3.277a3.485,3.485,0,0,1,.077-.89c.081-.755.184-1.508.276-2.262.1-.848.2-1.7.307-2.544.041-.341.091-.681.128-1.022a1.835,1.835,0,0,1,1.629-1.683,3.722,3.722,0,0,1,1.7.043,1.781,1.781,0,0,1,1.13.828,2.642,2.642,0,0,1,.241.6c.23.768.45,1.539.674,2.309.011.037.023.073.051.162.043-.111.072-.173.092-.239.238-.8.485-1.592.709-2.394a1.847,1.847,0,0,1,1.728-1.34,3.828,3.828,0,0,1,1.426.065,1.829,1.829,0,0,1,1.506,1.725c.09.775.2,1.548.294,2.323s.183,1.531.277,2.3c.074.6.152,1.2.226,1.8a1.979,1.979,0,0,1,0,.228h-3.289q-.212-2.466-.423-4.932l-.059,0c-.018.071-.035.142-.055.213q-.438,1.5-.878,3c-.088.3-.178.6-.276.9a1.254,1.254,0,0,1-.771.886,1.283,1.283,0,0,1-1.712-.761c-.1-.262-.18-.533-.26-.8q-.484-1.649-.962-3.3c-.02-.068-.048-.132-.072-.2Z" transform="translate(-286.208 -355.333)" fill="#8ec641"/><path d="M528.744,408.615v3.352a29.922,29.922,0,0,1-3.318.02c0-.1-.015-.2-.015-.3q0-3.127,0-6.255a2.082,2.082,0,0,1,.292-1.2,1.409,1.409,0,0,1,.84-.609,2.461,2.461,0,0,1,2.153.3,3.172,3.172,0,0,1,.692.664c.474.633.914,1.29,1.363,1.941a2.649,2.649,0,0,0,.366.481v-2.895c0-.063,0-.125,0-.188.006-.279.01-.285.312-.286q1.36,0,2.721,0c.323,0,.325,0,.325.332q0,3.065,0,6.13a6.56,6.56,0,0,1-.037.686,1.353,1.353,0,0,1-1.031,1.239,2.471,2.471,0,0,1-2.157-.254,2.871,2.871,0,0,1-.748-.742q-.7-.994-1.4-1.99c-.1-.143-.184-.3-.276-.448Z" transform="translate(-467.579 -355.339)" fill="#004890"/><path d="M391.927,412.041H388.6c-.005-.1-.015-.211-.015-.32,0-.667,0-1.334,0-2,0-.292,0-.294-.3-.3-.343,0-.687,0-1.069,0-.039-.727-.013-1.437-.018-2.165.113-.011.193-.025.273-.026.313,0,.626-.006.938,0a.165.165,0,0,0,.191-.19c-.018-.483-.22-.838-.726-.9-.671-.078-1.03.2-1.038.912-.019,1.532,0,3.065,0,4.6,0,.122,0,.245,0,.386h-3.364a2.08,2.08,0,0,1-.024-.231c0-1.512-.012-3.024,0-4.536a3.438,3.438,0,0,1,.916-2.456,3.864,3.864,0,0,1,2.083-1.124,5.691,5.691,0,0,1,3.259.232,3.309,3.309,0,0,1,2.171,2.575,5.222,5.222,0,0,1,.066.932c.007,1.449,0,2.9,0,4.348C391.945,411.862,391.934,411.943,391.927,412.041Z" transform="translate(-350.083 -355.377)" fill="#004890"/><path d="M443.928,412.619c-.006-.081-.013-.142-.013-.2,0-.688,0-1.377,0-2.065,0-.28.008-.268.285-.338a1.952,1.952,0,0,0,1.05-.574,1.517,1.517,0,0,0-.357-2.3,2.079,2.079,0,0,0-1.289-.3c0,.375-.005.758-.006,1.14s0,.772,0,1.158,0,.772,0,1.158,0,.772,0,1.158,0,.767,0,1.17h-3.338c-.063-.213-.093-7.656-.029-8.324a1.985,1.985,0,0,1,.231-.026c1.033,0,2.065-.017,3.1.005a6.7,6.7,0,0,1,3.35.869,4.225,4.225,0,0,1,1.966,2.222,3.249,3.249,0,0,1-.074,2.409,4.361,4.361,0,0,1-1.831,2.026,5.731,5.731,0,0,1-2.574.786c-.073.006-.145.019-.218.023S444.034,412.619,443.928,412.619Z" transform="translate(-397.056 -355.964)" fill="#004890"/><path d="M501.179,412.656h-3.333c-.059-.233-.075-7.946-.016-8.333.086-.006.177-.017.268-.017q1.376,0,2.753,0l.156,0a.152.152,0,0,1,.171.174c0,.063,0,.125,0,.188q0,3.816,0,7.633Z" transform="translate(-444.717 -355.993)" fill="#004890"/><path d="M195.242,231.183a2.376,2.376,0,0,1,2.344-2.344,2.442,2.442,0,0,1,2.316,2.388,2.371,2.371,0,0,1-2.333,2.283A2.28,2.28,0,0,1,195.242,231.183Z" transform="translate(-194.327 -210.768)" fill="#8ec641"/><path d="M198.469,194.41a2.319,2.319,0,0,1-.49-.012,2.457,2.457,0,0,1-1.568-.9,2.188,2.188,0,0,1-.487-1.118,2.349,2.349,0,1,1,4.682-.358,2.357,2.357,0,0,1-1.733,2.317A2.4,2.4,0,0,1,198.469,194.41Z" transform="translate(-194.882 -178.432)" fill="#8ec641"/><path d="M299.218,250.043a2.285,2.285,0,0,1-2.276-2.292,2.3,2.3,0,0,1,4.6-.011A2.272,2.272,0,0,1,299.218,250.043Z" transform="translate(-278.496 -224.525)" fill="#8ec641"/><path d="M321.42,376.83a1.9,1.9,0,0,1-1.925,1.943,1.936,1.936,0,0,1-1.93-1.887,1.907,1.907,0,0,1,1.914-1.964A1.927,1.927,0,0,1,321.42,376.83Z" transform="translate(-295.563 -331.663)" fill="#8ec641"/><path d="M347.107,378.755a1.883,1.883,0,0,1-1.884-1.781,1.917,1.917,0,1,1,3.828-.212A1.914,1.914,0,0,1,347.107,378.755Z" transform="translate(-318.45 -331.658)" fill="#8ec641"/><path d="M400.04,192.862c.323-.319.583-.589.858-.841a.609.609,0,0,0,.22-.519c-.017-.3-.008-.6-.007-.907s0-.306.319-.307.647,0,.97.006a.474.474,0,0,0,.385-.163c.273-.286.555-.564.858-.87.145.136.281.258.41.386.156.154.311.308.457.472a.515.515,0,0,0,.468.182c.311-.025.625-.013.938-.013a2.59,2.59,0,0,1,.273.032c0,.295,0,.574,0,.853.009.749-.1.507.434,1.053.131.134.267.264.4.394.218.211.22.218,0,.441s-.428.427-.65.632a.525.525,0,0,0-.189.438c.013.3.006.6.007.907,0,.1,0,.2,0,.327-.124.008-.215.018-.306.018-.3,0-.606.011-.907-.006a.6.6,0,0,0-.518.225c-.2.225-.419.436-.63.652-.05.051-.106.1-.179.161-.273-.272-.549-.525-.8-.8a.621.621,0,0,0-.56-.237c-.381.026-.765.007-1.184.007,0-.288,0-.545,0-.8a2.039,2.039,0,0,0-.038-.707c-.08-.2-.3-.338-.466-.5S400.253,193.054,400.04,192.862Z" transform="translate(-363.821 -178.014)" fill="#004890"/></g><path d="M526.383,338.155a2,2,0,1,1-2-2A2.006,2.006,0,0,1,526.383,338.155Z" transform="translate(-275.104 -175.558)" fill="#fff"/></g></svg>