<svg xmlns="http://www.w3.org/2000/svg" xmlns:xlink="http://www.w3.org/1999/xlink" width="139" height="139" viewBox="0 0 139 139"><defs><clipPath id="a"><rect width="139" height="139" fill="none"/></clipPath></defs><g clip-path="url(#a)"><g transform="translate(-753 -5163)"><circle cx="1.5" cy="1.5" r="1.5" transform="translate(753 5163)" fill="#d0d0d2"/></g><g transform="translate(-738 -5163)"><circle cx="1.5" cy="1.5" r="1.5" transform="translate(753 5163)" fill="#d0d0d2"/></g><g transform="translate(-723 -5163)"><circle cx="1.5" cy="1.5" r="1.5" transform="translate(753 5163)" fill="#d0d0d2"/></g><g transform="translate(-708 -5163)"><circle cx="1.5" cy="1.5" r="1.5" transform="translate(753 5163)" fill="#d0d0d2"/></g><g transform="translate(-693 -5163)"><circle cx="1.5" cy="1.5" r="1.5" transform="translate(753 5163)" fill="#d0d0d2"/></g><g transform="translate(-678 -5163)"><circle cx="1.5" cy="1.5" r="1.5" transform="translate(753 5163)" fill="#d0d0d2"/></g><g transform="translate(-663 -5163)"><circle cx="1.5" cy="1.5" r="1.5" transform="translate(753 5163)" fill="#d0d0d2"/></g><g transform="translate(-648 -5163)"><circle cx="1.5" cy="1.5" r="1.5" transform="translate(753 5163)" fill="#d0d0d2"/></g><g transform="translate(-633 -5163)"><circle cx="1.5" cy="1.5" r="1.5" transform="translate(753 5163)" fill="#d0d0d2"/></g><g transform="translate(-618 -5163)"><circle cx="1.5" cy="1.5" r="1.5" transform="translate(753 5163)" fill="#d0d0d2"/></g><g transform="translate(-753 -5148)"><circle cx="1.5" cy="1.5" r="1.5" transform="translate(753 5163)" fill="#d0d0d2"/></g><g transform="translate(-738 -5148)"><circle cx="1.5" cy="1.5" r="1.5" transform="translate(753 5163)" fill="#d0d0d2"/></g><g transform="translate(-723 -5148)"><circle cx="1.5" cy="1.5" r="1.5" transform="translate(753 5163)" fill="#d0d0d2"/></g><g transform="translate(-708 -5148)"><circle cx="1.5" cy="1.5" r="1.5" transform="translate(753 5163)" fill="#d0d0d2"/></g><g transform="translate(-693 -5148)"><circle cx="1.5" cy="1.5" r="1.5" transform="translate(753 5163)" fill="#d0d0d2"/></g><g transform="translate(-678 -5148)"><circle cx="1.5" cy="1.5" r="1.5" transform="translate(753 5163)" fill="#d0d0d2"/></g><g transform="translate(-663 -5148)"><circle cx="1.5" cy="1.5" r="1.5" transform="translate(753 5163)" fill="#d0d0d2"/></g><g transform="translate(-648 -5148)"><circle cx="1.5" cy="1.5" r="1.5" transform="translate(753 5163)" fill="#d0d0d2"/></g><g transform="translate(-633 -5148)"><circle cx="1.5" cy="1.5" r="1.5" transform="translate(753 5163)" fill="#d0d0d2"/></g><g transform="translate(-618 -5148)"><circle cx="1.5" cy="1.5" r="1.5" transform="translate(753 5163)" fill="#d0d0d2"/></g><g transform="translate(-753 -5133)"><circle cx="1.5" cy="1.5" r="1.5" transform="translate(753 5163)" fill="#d0d0d2"/></g><g transform="translate(-738 -5133)"><circle cx="1.5" cy="1.5" r="1.5" transform="translate(753 5163)" fill="#d0d0d2"/></g><g transform="translate(-723 -5133)"><circle cx="1.5" cy="1.5" r="1.5" transform="translate(753 5163)" fill="#d0d0d2"/></g><g transform="translate(-708 -5133)"><circle cx="1.5" cy="1.5" r="1.5" transform="translate(753 5163)" fill="#d0d0d2"/></g><g transform="translate(-693 -5133)"><circle cx="1.5" cy="1.5" r="1.5" transform="translate(753 5163)" fill="#d0d0d2"/></g><g transform="translate(-678 -5133)"><circle cx="1.5" cy="1.5" r="1.5" transform="translate(753 5163)" fill="#d0d0d2"/></g><g transform="translate(-663 -5133)"><circle cx="1.5" cy="1.5" r="1.5" transform="translate(753 5163)" fill="#d0d0d2"/></g><g transform="translate(-648 -5133)"><circle cx="1.5" cy="1.5" r="1.5" transform="translate(753 5163)" fill="#d0d0d2"/></g><g transform="translate(-633 -5133)"><circle cx="1.5" cy="1.5" r="1.5" transform="translate(753 5163)" fill="#d0d0d2"/></g><g transform="translate(-618 -5133)"><circle cx="1.5" cy="1.5" r="1.5" transform="translate(753 5163)" fill="#d0d0d2"/></g><g transform="translate(-753 -5118)"><circle cx="1.5" cy="1.5" r="1.5" transform="translate(753 5163)" fill="#d0d0d2"/></g><g transform="translate(-738 -5118)"><circle cx="1.5" cy="1.5" r="1.5" transform="translate(753 5163)" fill="#d0d0d2"/></g><g transform="translate(-723 -5118)"><circle cx="1.5" cy="1.5" r="1.5" transform="translate(753 5163)" fill="#d0d0d2"/></g><g transform="translate(-708 -5118)"><circle cx="1.5" cy="1.5" r="1.5" transform="translate(753 5163)" fill="#d0d0d2"/></g><g transform="translate(-693 -5118)"><circle cx="1.5" cy="1.5" r="1.5" transform="translate(753 5163)" fill="#d0d0d2"/></g><g transform="translate(-678 -5118)"><circle cx="1.5" cy="1.5" r="1.5" transform="translate(753 5163)" fill="#d0d0d2"/></g><g transform="translate(-663 -5118)"><circle cx="1.5" cy="1.5" r="1.5" transform="translate(753 5163)" fill="#d0d0d2"/></g><g transform="translate(-648 -5118)"><circle cx="1.5" cy="1.5" r="1.5" transform="translate(753 5163)" fill="#d0d0d2"/></g><g transform="translate(-633 -5118)"><circle cx="1.5" cy="1.5" r="1.5" transform="translate(753 5163)" fill="#d0d0d2"/></g><g transform="translate(-618 -5118)"><circle cx="1.5" cy="1.5" r="1.5" transform="translate(753 5163)" fill="#d0d0d2"/></g><g transform="translate(-753 -5103)"><circle cx="1.5" cy="1.5" r="1.5" transform="translate(753 5163)" fill="#d0d0d2"/></g><g transform="translate(-738 -5103)"><circle cx="1.5" cy="1.5" r="1.5" transform="translate(753 5163)" fill="#d0d0d2"/></g><g transform="translate(-723 -5103)"><circle cx="1.5" cy="1.5" r="1.5" transform="translate(753 5163)" fill="#d0d0d2"/></g><g transform="translate(-708 -5103)"><circle cx="1.5" cy="1.5" r="1.5" transform="translate(753 5163)" fill="#d0d0d2"/></g><g transform="translate(-693 -5103)"><circle cx="1.5" cy="1.5" r="1.5" transform="translate(753 5163)" fill="#d0d0d2"/></g><g transform="translate(-678 -5103)"><circle cx="1.5" cy="1.5" r="1.5" transform="translate(753 5163)" fill="#d0d0d2"/></g><g transform="translate(-663 -5103)"><circle cx="1.5" cy="1.5" r="1.5" transform="translate(753 5163)" fill="#d0d0d2"/></g><g transform="translate(-648 -5103)"><circle cx="1.5" cy="1.5" r="1.5" transform="translate(753 5163)" fill="#d0d0d2"/></g><g transform="translate(-633 -5103)"><circle cx="1.5" cy="1.5" r="1.5" transform="translate(753 5163)" fill="#d0d0d2"/></g><g transform="translate(-618 -5103)"><circle cx="1.5" cy="1.5" r="1.5" transform="translate(753 5163)" fill="#d0d0d2"/></g><g transform="translate(-753 -5088)"><circle cx="1.5" cy="1.5" r="1.5" transform="translate(753 5163)" fill="#d0d0d2"/></g><g transform="translate(-738 -5088)"><circle cx="1.5" cy="1.5" r="1.5" transform="translate(753 5163)" fill="#d0d0d2"/></g><g transform="translate(-723 -5088)"><circle cx="1.5" cy="1.5" r="1.5" transform="translate(753 5163)" fill="#d0d0d2"/></g><g transform="translate(-708 -5088)"><circle cx="1.5" cy="1.5" r="1.5" transform="translate(753 5163)" fill="#d0d0d2"/></g><g transform="translate(-693 -5088)"><circle cx="1.5" cy="1.5" r="1.5" transform="translate(753 5163)" fill="#d0d0d2"/></g><g transform="translate(-678 -5088)"><circle cx="1.5" cy="1.5" r="1.5" transform="translate(753 5163)" fill="#d0d0d2"/></g><g transform="translate(-663 -5088)"><circle cx="1.5" cy="1.5" r="1.5" transform="translate(753 5163)" fill="#d0d0d2"/></g><g transform="translate(-648 -5088)"><circle cx="1.5" cy="1.5" r="1.5" transform="translate(753 5163)" fill="#d0d0d2"/></g><g transform="translate(-633 -5088)"><circle cx="1.5" cy="1.5" r="1.5" transform="translate(753 5163)" fill="#d0d0d2"/></g><g transform="translate(-618 -5088)"><circle cx="1.5" cy="1.5" r="1.5" transform="translate(753 5163)" fill="#d0d0d2"/></g><g transform="translate(-753 -5073)"><circle cx="1.5" cy="1.5" r="1.5" transform="translate(753 5163)" fill="#d0d0d2"/></g><g transform="translate(-738 -5073)"><circle cx="1.5" cy="1.5" r="1.5" transform="translate(753 5163)" fill="#d0d0d2"/></g><g transform="translate(-723 -5073)"><circle cx="1.5" cy="1.5" r="1.5" transform="translate(753 5163)" fill="#d0d0d2"/></g><g transform="translate(-708 -5073)"><circle cx="1.5" cy="1.5" r="1.5" transform="translate(753 5163)" fill="#d0d0d2"/></g><g transform="translate(-693 -5073)"><circle cx="1.5" cy="1.5" r="1.5" transform="translate(753 5163)" fill="#d0d0d2"/></g><g transform="translate(-678 -5073)"><circle cx="1.5" cy="1.5" r="1.5" transform="translate(753 5163)" fill="#d0d0d2"/></g><g transform="translate(-663 -5073)"><circle cx="1.5" cy="1.5" r="1.5" transform="translate(753 5163)" fill="#d0d0d2"/></g><g transform="translate(-648 -5073)"><circle cx="1.5" cy="1.5" r="1.5" transform="translate(753 5163)" fill="#d0d0d2"/></g><g transform="translate(-633 -5073)"><circle cx="1.5" cy="1.5" r="1.5" transform="translate(753 5163)" fill="#d0d0d2"/></g><g transform="translate(-618 -5073)"><circle cx="1.5" cy="1.5" r="1.5" transform="translate(753 5163)" fill="#d0d0d2"/></g><g transform="translate(-753 -5058)"><circle cx="1.5" cy="1.5" r="1.5" transform="translate(753 5163)" fill="#d0d0d2"/></g><g transform="translate(-738 -5058)"><circle cx="1.5" cy="1.5" r="1.5" transform="translate(753 5163)" fill="#d0d0d2"/></g><g transform="translate(-723 -5058)"><circle cx="1.5" cy="1.5" r="1.5" transform="translate(753 5163)" fill="#d0d0d2"/></g><g transform="translate(-708 -5058)"><circle cx="1.5" cy="1.5" r="1.5" transform="translate(753 5163)" fill="#d0d0d2"/></g><g transform="translate(-693 -5058)"><circle cx="1.5" cy="1.5" r="1.5" transform="translate(753 5163)" fill="#d0d0d2"/></g><g transform="translate(-678 -5058)"><circle cx="1.5" cy="1.5" r="1.5" transform="translate(753 5163)" fill="#d0d0d2"/></g><g transform="translate(-663 -5058)"><circle cx="1.5" cy="1.5" r="1.5" transform="translate(753 5163)" fill="#d0d0d2"/></g><g transform="translate(-648 -5058)"><circle cx="1.5" cy="1.5" r="1.5" transform="translate(753 5163)" fill="#d0d0d2"/></g><g transform="translate(-633 -5058)"><circle cx="1.5" cy="1.5" r="1.5" transform="translate(753 5163)" fill="#d0d0d2"/></g><g transform="translate(-618 -5058)"><circle cx="1.5" cy="1.5" r="1.5" transform="translate(753 5163)" fill="#d0d0d2"/></g><g transform="translate(-753 -5043)"><circle cx="1.5" cy="1.5" r="1.5" transform="translate(753 5163)" fill="#d0d0d2"/></g><g transform="translate(-738 -5043)"><circle cx="1.5" cy="1.5" r="1.5" transform="translate(753 5163)" fill="#d0d0d2"/></g><g transform="translate(-723 -5043)"><circle cx="1.5" cy="1.5" r="1.5" transform="translate(753 5163)" fill="#d0d0d2"/></g><g transform="translate(-708 -5043)"><circle cx="1.5" cy="1.5" r="1.5" transform="translate(753 5163)" fill="#d0d0d2"/></g><g transform="translate(-693 -5043)"><circle cx="1.5" cy="1.5" r="1.5" transform="translate(753 5163)" fill="#d0d0d2"/></g><g transform="translate(-678 -5043)"><circle cx="1.5" cy="1.5" r="1.5" transform="translate(753 5163)" fill="#d0d0d2"/></g><g transform="translate(-663 -5043)"><circle cx="1.5" cy="1.5" r="1.5" transform="translate(753 5163)" fill="#d0d0d2"/></g><g transform="translate(-648 -5043)"><circle cx="1.5" cy="1.5" r="1.5" transform="translate(753 5163)" fill="#d0d0d2"/></g><g transform="translate(-633 -5043)"><circle cx="1.5" cy="1.5" r="1.5" transform="translate(753 5163)" fill="#d0d0d2"/></g><g transform="translate(-618 -5043)"><circle cx="1.5" cy="1.5" r="1.5" transform="translate(753 5163)" fill="#d0d0d2"/></g><g transform="translate(-753 -5028)"><circle cx="1.5" cy="1.5" r="1.5" transform="translate(753 5163)" fill="#d0d0d2"/></g><g transform="translate(-738 -5028)"><circle cx="1.5" cy="1.5" r="1.5" transform="translate(753 5163)" fill="#d0d0d2"/></g><g transform="translate(-723 -5028)"><circle cx="1.5" cy="1.5" r="1.5" transform="translate(753 5163)" fill="#d0d0d2"/></g><g transform="translate(-708 -5028)"><circle cx="1.5" cy="1.5" r="1.5" transform="translate(753 5163)" fill="#d0d0d2"/></g><g transform="translate(-693 -5028)"><circle cx="1.5" cy="1.5" r="1.5" transform="translate(753 5163)" fill="#d0d0d2"/></g><g transform="translate(-678 -5028)"><circle cx="1.5" cy="1.5" r="1.5" transform="translate(753 5163)" fill="#d0d0d2"/></g><g transform="translate(-663 -5028)"><circle cx="1.5" cy="1.5" r="1.5" transform="translate(753 5163)" fill="#d0d0d2"/></g><g transform="translate(-648 -5028)"><circle cx="1.5" cy="1.5" r="1.5" transform="translate(753 5163)" fill="#d0d0d2"/></g><g transform="translate(-633 -5028)"><circle cx="1.5" cy="1.5" r="1.5" transform="translate(753 5163)" fill="#d0d0d2"/></g><g transform="translate(-618 -5028)"><circle cx="1.5" cy="1.5" r="1.5" transform="translate(753 5163)" fill="#d0d0d2"/></g></g></svg>