<svg xmlns="http://www.w3.org/2000/svg" xmlns:xlink="http://www.w3.org/1999/xlink" width="1317" height="612" viewBox="0 0 1317 612"><defs><clipPath id="a"><rect width="208" height="208" fill="none"/></clipPath></defs><g transform="translate(23 -2678)"><g transform="translate(69 3082)" clip-path="url(#a)"><g transform="translate(-1801 -93)"><circle cx="4" cy="4" r="4" transform="translate(1801 93)" fill="#fff"/></g><g transform="translate(-1761 -93)"><circle cx="4" cy="4" r="4" transform="translate(1801 93)" fill="#fff"/></g><g transform="translate(-1721 -93)"><circle cx="4" cy="4" r="4" transform="translate(1801 93)" fill="#fff"/></g><g transform="translate(-1681 -93)"><circle cx="4" cy="4" r="4" transform="translate(1801 93)" fill="#fff"/></g><g transform="translate(-1641 -93)"><circle cx="4" cy="4" r="4" transform="translate(1801 93)" fill="#fff"/></g><g transform="translate(-1601 -93)"><circle cx="4" cy="4" r="4" transform="translate(1801 93)" fill="#fff"/></g><g transform="translate(-1801 -53)"><circle cx="4" cy="4" r="4" transform="translate(1801 93)" fill="#fff"/></g><g transform="translate(-1761 -53)"><circle cx="4" cy="4" r="4" transform="translate(1801 93)" fill="#fff"/></g><g transform="translate(-1721 -53)"><circle cx="4" cy="4" r="4" transform="translate(1801 93)" fill="#fff"/></g><g transform="translate(-1681 -53)"><circle cx="4" cy="4" r="4" transform="translate(1801 93)" fill="#fff"/></g><g transform="translate(-1641 -53)"><circle cx="4" cy="4" r="4" transform="translate(1801 93)" fill="#fff"/></g><g transform="translate(-1601 -53)"><circle cx="4" cy="4" r="4" transform="translate(1801 93)" fill="#fff"/></g><g transform="translate(-1801 -13)"><circle cx="4" cy="4" r="4" transform="translate(1801 93)" fill="#fff"/></g><g transform="translate(-1761 -13)"><circle cx="4" cy="4" r="4" transform="translate(1801 93)" fill="#fff"/></g><g transform="translate(-1721 -13)"><circle cx="4" cy="4" r="4" transform="translate(1801 93)" fill="#fff"/></g><g transform="translate(-1681 -13)"><circle cx="4" cy="4" r="4" transform="translate(1801 93)" fill="#fff"/></g><g transform="translate(-1641 -13)"><circle cx="4" cy="4" r="4" transform="translate(1801 93)" fill="#fff"/></g><g transform="translate(-1601 -13)"><circle cx="4" cy="4" r="4" transform="translate(1801 93)" fill="#fff"/></g><g transform="translate(-1801 27)"><circle cx="4" cy="4" r="4" transform="translate(1801 93)" fill="#fff"/></g><g transform="translate(-1761 27)"><circle cx="4" cy="4" r="4" transform="translate(1801 93)" fill="#fff"/></g><g transform="translate(-1721 27)"><circle cx="4" cy="4" r="4" transform="translate(1801 93)" fill="#fff"/></g><g transform="translate(-1681 27)"><circle cx="4" cy="4" r="4" transform="translate(1801 93)" fill="#fff"/></g><g transform="translate(-1641 27)"><circle cx="4" cy="4" r="4" transform="translate(1801 93)" fill="#fff"/></g><g transform="translate(-1601 27)"><circle cx="4" cy="4" r="4" transform="translate(1801 93)" fill="#fff"/></g><g transform="translate(-1801 67)"><circle cx="4" cy="4" r="4" transform="translate(1801 93)" fill="#fff"/></g><g transform="translate(-1761 67)"><circle cx="4" cy="4" r="4" transform="translate(1801 93)" fill="#fff"/></g><g transform="translate(-1721 67)"><circle cx="4" cy="4" r="4" transform="translate(1801 93)" fill="#fff"/></g><g transform="translate(-1681 67)"><circle cx="4" cy="4" r="4" transform="translate(1801 93)" fill="#fff"/></g><g transform="translate(-1641 67)"><circle cx="4" cy="4" r="4" transform="translate(1801 93)" fill="#fff"/></g><g transform="translate(-1601 67)"><circle cx="4" cy="4" r="4" transform="translate(1801 93)" fill="#fff"/></g><g transform="translate(-1801 107)"><circle cx="4" cy="4" r="4" transform="translate(1801 93)" fill="#fff"/></g><g transform="translate(-1761 107)"><circle cx="4" cy="4" r="4" transform="translate(1801 93)" fill="#fff"/></g><g transform="translate(-1721 107)"><circle cx="4" cy="4" r="4" transform="translate(1801 93)" fill="#fff"/></g><g transform="translate(-1681 107)"><circle cx="4" cy="4" r="4" transform="translate(1801 93)" fill="#fff"/></g><g transform="translate(-1641 107)"><circle cx="4" cy="4" r="4" transform="translate(1801 93)" fill="#fff"/></g><g transform="translate(-1601 107)"><circle cx="4" cy="4" r="4" transform="translate(1801 93)" fill="#fff"/></g></g><g transform="translate(1086 2678)" clip-path="url(#a)"><g transform="translate(-1801 -93)"><circle cx="4" cy="4" r="4" transform="translate(1801 93)" fill="#fff"/></g><g transform="translate(-1761 -93)"><circle cx="4" cy="4" r="4" transform="translate(1801 93)" fill="#fff"/></g><g transform="translate(-1721 -93)"><circle cx="4" cy="4" r="4" transform="translate(1801 93)" fill="#fff"/></g><g transform="translate(-1681 -93)"><circle cx="4" cy="4" r="4" transform="translate(1801 93)" fill="#fff"/></g><g transform="translate(-1641 -93)"><circle cx="4" cy="4" r="4" transform="translate(1801 93)" fill="#fff"/></g><g transform="translate(-1601 -93)"><circle cx="4" cy="4" r="4" transform="translate(1801 93)" fill="#fff"/></g><g transform="translate(-1801 -53)"><circle cx="4" cy="4" r="4" transform="translate(1801 93)" fill="#fff"/></g><g transform="translate(-1761 -53)"><circle cx="4" cy="4" r="4" transform="translate(1801 93)" fill="#fff"/></g><g transform="translate(-1721 -53)"><circle cx="4" cy="4" r="4" transform="translate(1801 93)" fill="#fff"/></g><g transform="translate(-1681 -53)"><circle cx="4" cy="4" r="4" transform="translate(1801 93)" fill="#fff"/></g><g transform="translate(-1641 -53)"><circle cx="4" cy="4" r="4" transform="translate(1801 93)" fill="#fff"/></g><g transform="translate(-1601 -53)"><circle cx="4" cy="4" r="4" transform="translate(1801 93)" fill="#fff"/></g><g transform="translate(-1801 -13)"><circle cx="4" cy="4" r="4" transform="translate(1801 93)" fill="#fff"/></g><g transform="translate(-1761 -13)"><circle cx="4" cy="4" r="4" transform="translate(1801 93)" fill="#fff"/></g><g transform="translate(-1721 -13)"><circle cx="4" cy="4" r="4" transform="translate(1801 93)" fill="#fff"/></g><g transform="translate(-1681 -13)"><circle cx="4" cy="4" r="4" transform="translate(1801 93)" fill="#fff"/></g><g transform="translate(-1641 -13)"><circle cx="4" cy="4" r="4" transform="translate(1801 93)" fill="#fff"/></g><g transform="translate(-1601 -13)"><circle cx="4" cy="4" r="4" transform="translate(1801 93)" fill="#fff"/></g><g transform="translate(-1801 27)"><circle cx="4" cy="4" r="4" transform="translate(1801 93)" fill="#fff"/></g><g transform="translate(-1761 27)"><circle cx="4" cy="4" r="4" transform="translate(1801 93)" fill="#fff"/></g><g transform="translate(-1721 27)"><circle cx="4" cy="4" r="4" transform="translate(1801 93)" fill="#fff"/></g><g transform="translate(-1681 27)"><circle cx="4" cy="4" r="4" transform="translate(1801 93)" fill="#fff"/></g><g transform="translate(-1641 27)"><circle cx="4" cy="4" r="4" transform="translate(1801 93)" fill="#fff"/></g><g transform="translate(-1601 27)"><circle cx="4" cy="4" r="4" transform="translate(1801 93)" fill="#fff"/></g><g transform="translate(-1801 67)"><circle cx="4" cy="4" r="4" transform="translate(1801 93)" fill="#fff"/></g><g transform="translate(-1761 67)"><circle cx="4" cy="4" r="4" transform="translate(1801 93)" fill="#fff"/></g><g transform="translate(-1721 67)"><circle cx="4" cy="4" r="4" transform="translate(1801 93)" fill="#fff"/></g><g transform="translate(-1681 67)"><circle cx="4" cy="4" r="4" transform="translate(1801 93)" fill="#fff"/></g><g transform="translate(-1641 67)"><circle cx="4" cy="4" r="4" transform="translate(1801 93)" fill="#fff"/></g><g transform="translate(-1601 67)"><circle cx="4" cy="4" r="4" transform="translate(1801 93)" fill="#fff"/></g><g transform="translate(-1801 107)"><circle cx="4" cy="4" r="4" transform="translate(1801 93)" fill="#fff"/></g><g transform="translate(-1761 107)"><circle cx="4" cy="4" r="4" transform="translate(1801 93)" fill="#fff"/></g><g transform="translate(-1721 107)"><circle cx="4" cy="4" r="4" transform="translate(1801 93)" fill="#fff"/></g><g transform="translate(-1681 107)"><circle cx="4" cy="4" r="4" transform="translate(1801 93)" fill="#fff"/></g><g transform="translate(-1641 107)"><circle cx="4" cy="4" r="4" transform="translate(1801 93)" fill="#fff"/></g><g transform="translate(-1601 107)"><circle cx="4" cy="4" r="4" transform="translate(1801 93)" fill="#fff"/></g></g><g transform="translate(-23 2694)" fill="none" stroke="#fff" stroke-width="5"><circle cx="23.5" cy="23.5" r="23.5" stroke="none"/><circle cx="23.5" cy="23.5" r="21" fill="none"/></g></g></svg>