<svg xmlns="http://www.w3.org/2000/svg" width="50" height="50" viewBox="0 0 50 50"><g transform="translate(-1291 -6325)"><circle cx="25" cy="25" r="25" transform="translate(1291 6325)" fill="#fbfbfb"/><path d="M18.8,18a5.657,5.657,0,0,1-4.031-1.649A6.363,6.363,0,0,1,13,11.725a11.036,11.036,0,0,1,.7-3.831A12.337,12.337,0,0,1,15.71,4.387,12.464,12.464,0,0,1,23,0l.984,2.126a6.87,6.87,0,0,0-2.939,2.435A7.429,7.429,0,0,0,19.6,7.872,5.213,5.213,0,0,1,24,13.021,4.73,4.73,0,0,1,22.381,16.7,5.509,5.509,0,0,1,18.8,18Zm-13,0A5.657,5.657,0,0,1,1.77,16.351,6.363,6.363,0,0,1,0,11.725,11.036,11.036,0,0,1,.7,7.894,12.337,12.337,0,0,1,2.71,4.387,12.464,12.464,0,0,1,10,0l.984,2.126A6.87,6.87,0,0,0,8.045,4.561,7.426,7.426,0,0,0,6.6,7.872,5.213,5.213,0,0,1,11,13.021,4.73,4.73,0,0,1,9.381,16.7,5.509,5.509,0,0,1,5.8,18Z" transform="translate(1304 6341)" fill="#8ec641"/></g></svg>