<svg xmlns="http://www.w3.org/2000/svg" xmlns:xlink="http://www.w3.org/1999/xlink" width="1088" height="540" viewBox="0 0 1088 540"><defs><clipPath id="a"><rect width="1088" height="540" rx="20" transform="translate(139 1595)" fill="#fff" stroke="#ebeaee" stroke-miterlimit="10" stroke-width="0.5"/></clipPath></defs><g transform="translate(-139 -1595)" clip-path="url(#a)"><rect width="1088" height="540" rx="20" transform="translate(139 1595)" fill="none"/><g transform="translate(147.027 1563.2)" opacity="0.1"><path d="M250.707,353.55l-9.467,9.467a6.694,6.694,0,1,1-9.467-9.467l9.467-9.467a6.7,6.7,0,0,0,0-9.467l-8.7-8.7A6.694,6.694,0,1,1,242,316.443l8.7,8.7A20.1,20.1,0,0,1,250.707,353.55Z" transform="translate(-117.115 -179.02)" fill="#004890"/><path d="M224.144,416.291h0a13.389,13.389,0,0,1-18.935,0l-47.338-47.338,18.935-18.935,47.338,47.338A13.388,13.388,0,0,1,224.144,416.291Z" transform="translate(-76.288 -199.368)" fill="#8ec641"/><path d="M81.619,261.753l29.35,29.35L110.4,309.47,77.264,342.606a20.286,20.286,0,0,1-28.592-.19L29.737,323.481a19.914,19.914,0,0,1,.19-28.213l33.136-33.136Z" transform="translate(0 -149.352)" fill="#8ec641"/><path d="M116.363,295.4l14.769,14.769-.568,18.367L97.428,361.673a20.286,20.286,0,0,1-28.592-.19L59.558,352.2Z" transform="translate(-20.164 -168.418)" fill="#7db135"/><g transform="translate(157.189 0)"><path d="M340.236,26.78a6.692,6.692,0,0,1-6.694-6.693l0-13.392a6.694,6.694,0,1,1,13.387,0l0,13.392A6.692,6.692,0,0,1,340.236,26.78Z" transform="translate(-333.538 0)" fill="#8ec641"/><path d="M446.316,136.979l-13.392,0a6.693,6.693,0,1,1,0-13.387l13.392,0a6.694,6.694,0,0,1,0,13.387Z" transform="translate(-386.062 -70.031)" fill="#8ec641"/><path d="M419.263,30.63a6.629,6.629,0,0,1,0,9.467l-14.2,14.2a6.694,6.694,0,1,1-9.467-9.467l14.2-14.2A6.629,6.629,0,0,1,419.263,30.63Z" transform="translate(-367.575 -16.23)" fill="#8ec641"/></g><path d="M180.449,55.849l66.273,66.273c1.894,1.894,4.26,21.87,6.722,22.249l-18.65,3.882c-27.645,5.491-53.87,20.734-71.669,38.533l-1.609,1.609-47.338-47.338,1.609-1.609a140.69,140.69,0,0,0,38.249-71.953l3.881-19.408Z" transform="translate(-52.047 -27.248)" fill="#def3ff"/><path d="M119.588,336.494a6.629,6.629,0,0,1,0,9.467l-9.467,9.468a6.694,6.694,0,1,1-9.467-9.467l9.467-9.467A6.629,6.629,0,0,1,119.588,336.494Z" transform="translate(-42.493 -190.299)" fill="#b9deff"/><path d="M244.536,142.467,277.672,175.6c1.894,1.894,4.26,21.87,6.722,22.249l-18.651,3.882c-27.645,5.491-53.87,20.734-71.669,38.533l-1.609,1.609L168.8,218.207Z" transform="translate(-82.997 -81.248)" fill="#80bfff" opacity="0.4"/><path d="M122.188,339.094a6.629,6.629,0,0,1,0,9.467l-9.467,9.468a6.629,6.629,0,0,1-9.467,0Z" transform="translate(-45.102 -192.901)" fill="#def3ff"/><path d="M237.494,17.2,322.7,102.408a13.429,13.429,0,0,1,0,18.935,7.816,7.816,0,0,1-2.084,1.325,12.509,12.509,0,0,1-10.13,1.988,11.926,11.926,0,0,1-6.722-3.313L218.559,36.135a13.131,13.131,0,0,1-3.6-7.763,13.246,13.246,0,0,1,1.61-8.237,15.957,15.957,0,0,1,1.988-2.935A13.43,13.43,0,0,1,237.494,17.2Z" transform="translate(-109.092 -7.534)" fill="#8ec641"/><path d="M340.662,120.62l42.6,42.6a13.429,13.429,0,0,1,0,18.935,7.822,7.822,0,0,1-2.084,1.325,12.51,12.51,0,0,1-10.13,1.988,11.926,11.926,0,0,1-6.722-3.313l-42.6-42.6Z" transform="translate(-169.655 -68.693)" fill="#7db135"/></g></g></svg>