<svg xmlns="http://www.w3.org/2000/svg" xmlns:xlink="http://www.w3.org/1999/xlink" width="1088" height="234" viewBox="0 0 1088 234"><defs><clipPath id="a"><rect width="1088" height="234" rx="20" fill="#8ec641"/></clipPath></defs><g clip-path="url(#a)"><g transform="translate(1.095 38.305)" opacity="0.36"><g transform="translate(0 0)"><path d="M2.132,193.451,0,0,193.451,2.132" transform="translate(136.791 0) rotate(45)" fill="none" stroke="#fff" stroke-miterlimit="10" stroke-width="1"/><path d="M2.132,193.451,0,0,193.451,2.132" transform="translate(677.792 0) rotate(45)" fill="none" stroke="#fff" stroke-miterlimit="10" stroke-width="1"/><path d="M2.132,193.451,0,0,193.451,2.132" transform="translate(407.375 0) rotate(45)" fill="none" stroke="#fff" stroke-miterlimit="10" stroke-width="1"/><path d="M2.132,193.451,0,0,193.451,2.132" transform="translate(948.376 0) rotate(45)" fill="none" stroke="#fff" stroke-miterlimit="10" stroke-width="1"/><g transform="translate(0.36 636.817)"><path d="M1.622,192.942,0,0,192.942,1.622" transform="translate(136.43 0) rotate(45)" fill="none" stroke="#fff" stroke-miterlimit="10" stroke-width="1"/><path d="M1.622,192.942,0,0,192.942,1.622" transform="translate(677.431 0) rotate(45)" fill="none" stroke="#fff" stroke-miterlimit="10" stroke-width="1"/><path d="M1.622,192.942,0,0,192.942,1.622" transform="translate(407.015 0) rotate(45)" fill="none" stroke="#fff" stroke-miterlimit="10" stroke-width="1"/><path d="M1.622,192.942,0,0,192.942,1.622" transform="translate(948.016 0) rotate(45)" fill="none" stroke="#fff" stroke-miterlimit="10" stroke-width="1"/></g><g transform="translate(0.36 707.495)"><path d="M1.622,192.942,0,0,192.942,1.622" transform="translate(136.43 0) rotate(45)" fill="none" stroke="#fff" stroke-miterlimit="10" stroke-width="1"/><path d="M1.622,192.942,0,0,192.942,1.622" transform="translate(677.431 0) rotate(45)" fill="none" stroke="#fff" stroke-miterlimit="10" stroke-width="1"/><path d="M1.622,192.942,0,0,192.942,1.622" transform="translate(407.015 0) rotate(45)" fill="none" stroke="#fff" stroke-miterlimit="10" stroke-width="1"/><path d="M1.622,192.942,0,0,192.942,1.622" transform="translate(948.016 0) rotate(45)" fill="none" stroke="#fff" stroke-miterlimit="10" stroke-width="1"/></g><g transform="translate(0.36 778.172)"><path d="M1.622,192.942,0,0,192.942,1.622" transform="translate(136.43 0) rotate(45)" fill="none" stroke="#fff" stroke-miterlimit="10" stroke-width="1"/><path d="M1.622,192.942,0,0,192.942,1.622" transform="translate(677.431 0) rotate(45)" fill="none" stroke="#fff" stroke-miterlimit="10" stroke-width="1"/><path d="M1.622,192.942,0,0,192.942,1.622" transform="translate(407.015 0) rotate(45)" fill="none" stroke="#fff" stroke-miterlimit="10" stroke-width="1"/><path d="M1.622,192.942,0,0,192.942,1.622" transform="translate(948.016 0) rotate(45)" fill="none" stroke="#fff" stroke-miterlimit="10" stroke-width="1"/></g><g transform="translate(0.36 848.85)"><path d="M1.622,192.942,0,0,192.942,1.622" transform="translate(136.43 0) rotate(45)" fill="none" stroke="#fff" stroke-miterlimit="10" stroke-width="1"/><path d="M1.622,192.942,0,0,192.942,1.622" transform="translate(677.431 0) rotate(45)" fill="none" stroke="#fff" stroke-miterlimit="10" stroke-width="1"/><path d="M1.622,192.942,0,0,192.942,1.622" transform="translate(407.015 0) rotate(45)" fill="none" stroke="#fff" stroke-miterlimit="10" stroke-width="1"/><path d="M1.622,192.942,0,0,192.942,1.622" transform="translate(948.016 0) rotate(45)" fill="none" stroke="#fff" stroke-miterlimit="10" stroke-width="1"/></g><g transform="translate(0.36 919.527)"><path d="M1.622,192.942,0,0,192.942,1.622" transform="translate(136.43 0) rotate(45)" fill="none" stroke="#fff" stroke-miterlimit="10" stroke-width="1"/><path d="M1.622,192.942,0,0,192.942,1.622" transform="translate(677.431 0) rotate(45)" fill="none" stroke="#fff" stroke-miterlimit="10" stroke-width="1"/><path d="M1.622,192.942,0,0,192.942,1.622" transform="translate(407.015 0) rotate(45)" fill="none" stroke="#fff" stroke-miterlimit="10" stroke-width="1"/><path d="M1.622,192.942,0,0,192.942,1.622" transform="translate(948.016 0) rotate(45)" fill="none" stroke="#fff" stroke-miterlimit="10" stroke-width="1"/></g><g transform="translate(0.36 990.205)"><path d="M1.622,192.942,0,0,192.942,1.622" transform="translate(136.43 0) rotate(45)" fill="none" stroke="#fff" stroke-miterlimit="10" stroke-width="1"/><path d="M1.622,192.942,0,0,192.942,1.622" transform="translate(677.431 0) rotate(45)" fill="none" stroke="#fff" stroke-miterlimit="10" stroke-width="1"/><path d="M1.622,192.942,0,0,192.942,1.622" transform="translate(407.015 0) rotate(45)" fill="none" stroke="#fff" stroke-miterlimit="10" stroke-width="1"/><path d="M1.622,192.942,0,0,192.942,1.622" transform="translate(948.016 0) rotate(45)" fill="none" stroke="#fff" stroke-miterlimit="10" stroke-width="1"/></g><g transform="translate(0.36 1060.882)"><path d="M1.622,192.942,0,0,192.942,1.622" transform="translate(136.43 0) rotate(45)" fill="none" stroke="#fff" stroke-miterlimit="10" stroke-width="1"/><path d="M1.622,192.942,0,0,192.942,1.622" transform="translate(677.431 0) rotate(45)" fill="none" stroke="#fff" stroke-miterlimit="10" stroke-width="1"/><path d="M1.622,192.942,0,0,192.942,1.622" transform="translate(407.015 0) rotate(45)" fill="none" stroke="#fff" stroke-miterlimit="10" stroke-width="1"/><path d="M1.622,192.942,0,0,192.942,1.622" transform="translate(948.016 0) rotate(45)" fill="none" stroke="#fff" stroke-miterlimit="10" stroke-width="1"/></g><g transform="translate(0.36 1131.559)"><path d="M1.622,192.942,0,0,192.942,1.622" transform="translate(136.43 0) rotate(45)" fill="none" stroke="#fff" stroke-miterlimit="10" stroke-width="1"/><path d="M1.622,192.942,0,0,192.942,1.622" transform="translate(677.431 0) rotate(45)" fill="none" stroke="#fff" stroke-miterlimit="10" stroke-width="1"/><path d="M1.622,192.942,0,0,192.942,1.622" transform="translate(407.015 0) rotate(45)" fill="none" stroke="#fff" stroke-miterlimit="10" stroke-width="1"/><path d="M1.622,192.942,0,0,192.942,1.622" transform="translate(948.016 0) rotate(45)" fill="none" stroke="#fff" stroke-miterlimit="10" stroke-width="1"/></g><g transform="translate(0.36 1202.237)"><path d="M1.622,192.942,0,0,192.942,1.622" transform="translate(136.43 0) rotate(45)" fill="none" stroke="#fff" stroke-miterlimit="10" stroke-width="1"/><path d="M1.622,192.942,0,0,192.942,1.622" transform="translate(677.431 0) rotate(45)" fill="none" stroke="#fff" stroke-miterlimit="10" stroke-width="1"/><path d="M1.622,192.942,0,0,192.942,1.622" transform="translate(407.015 0) rotate(45)" fill="none" stroke="#fff" stroke-miterlimit="10" stroke-width="1"/><path d="M1.622,192.942,0,0,192.942,1.622" transform="translate(948.016 0) rotate(45)" fill="none" stroke="#fff" stroke-miterlimit="10" stroke-width="1"/></g><g transform="translate(0.36 566.14)"><path d="M1.622,192.942,0,0,192.942,1.622" transform="translate(136.43 0) rotate(45)" fill="none" stroke="#fff" stroke-miterlimit="10" stroke-width="1"/><path d="M1.622,192.942,0,0,192.942,1.622" transform="translate(677.431 0) rotate(45)" fill="none" stroke="#fff" stroke-miterlimit="10" stroke-width="1"/><path d="M1.622,192.942,0,0,192.942,1.622" transform="translate(407.015 0) rotate(45)" fill="none" stroke="#fff" stroke-miterlimit="10" stroke-width="1"/><path d="M1.622,192.942,0,0,192.942,1.622" transform="translate(948.016 0) rotate(45)" fill="none" stroke="#fff" stroke-miterlimit="10" stroke-width="1"/></g><g transform="translate(0.36 495.462)"><path d="M1.622,192.942,0,0,192.942,1.622" transform="translate(136.43 0) rotate(45)" fill="none" stroke="#fff" stroke-miterlimit="10" stroke-width="1"/><path d="M1.622,192.942,0,0,192.942,1.622" transform="translate(677.431 0) rotate(45)" fill="none" stroke="#fff" stroke-miterlimit="10" stroke-width="1"/><path d="M1.622,192.942,0,0,192.942,1.622" transform="translate(407.015 0) rotate(45)" fill="none" stroke="#fff" stroke-miterlimit="10" stroke-width="1"/><path d="M1.622,192.942,0,0,192.942,1.622" transform="translate(948.016 0) rotate(45)" fill="none" stroke="#fff" stroke-miterlimit="10" stroke-width="1"/></g><g transform="translate(0.36 424.785)"><path d="M1.622,192.942,0,0,192.942,1.622" transform="translate(136.43 0) rotate(45)" fill="none" stroke="#fff" stroke-miterlimit="10" stroke-width="1"/><path d="M1.622,192.942,0,0,192.942,1.622" transform="translate(677.431 0) rotate(45)" fill="none" stroke="#fff" stroke-miterlimit="10" stroke-width="1"/><path d="M1.622,192.942,0,0,192.942,1.622" transform="translate(407.015 0) rotate(45)" fill="none" stroke="#fff" stroke-miterlimit="10" stroke-width="1"/><path d="M1.622,192.942,0,0,192.942,1.622" transform="translate(948.016 0) rotate(45)" fill="none" stroke="#fff" stroke-miterlimit="10" stroke-width="1"/></g><g transform="translate(0.36 354.108)"><path d="M1.622,192.942,0,0,192.942,1.622" transform="translate(136.43 0) rotate(45)" fill="none" stroke="#fff" stroke-miterlimit="10" stroke-width="1"/><path d="M1.622,192.942,0,0,192.942,1.622" transform="translate(677.431 0) rotate(45)" fill="none" stroke="#fff" stroke-miterlimit="10" stroke-width="1"/><path d="M1.622,192.942,0,0,192.942,1.622" transform="translate(407.015 0) rotate(45)" fill="none" stroke="#fff" stroke-miterlimit="10" stroke-width="1"/><path d="M1.622,192.942,0,0,192.942,1.622" transform="translate(948.016 0) rotate(45)" fill="none" stroke="#fff" stroke-miterlimit="10" stroke-width="1"/></g><g transform="translate(0.36 283.43)"><path d="M1.622,192.942,0,0,192.942,1.622" transform="translate(136.43 0) rotate(45)" fill="none" stroke="#fff" stroke-miterlimit="10" stroke-width="1"/><path d="M1.622,192.942,0,0,192.942,1.622" transform="translate(677.431 0) rotate(45)" fill="none" stroke="#fff" stroke-miterlimit="10" stroke-width="1"/><path d="M1.622,192.942,0,0,192.942,1.622" transform="translate(407.015 0) rotate(45)" fill="none" stroke="#fff" stroke-miterlimit="10" stroke-width="1"/><path d="M1.622,192.942,0,0,192.942,1.622" transform="translate(948.016 0) rotate(45)" fill="none" stroke="#fff" stroke-miterlimit="10" stroke-width="1"/></g><g transform="translate(0.36 212.753)"><path d="M1.622,192.942,0,0,192.942,1.622" transform="translate(136.43 0) rotate(45)" fill="none" stroke="#fff" stroke-miterlimit="10" stroke-width="1"/><path d="M1.622,192.942,0,0,192.942,1.622" transform="translate(677.431 0) rotate(45)" fill="none" stroke="#fff" stroke-miterlimit="10" stroke-width="1"/><path d="M1.622,192.942,0,0,192.942,1.622" transform="translate(407.015 0) rotate(45)" fill="none" stroke="#fff" stroke-miterlimit="10" stroke-width="1"/><path d="M1.622,192.942,0,0,192.942,1.622" transform="translate(948.016 0) rotate(45)" fill="none" stroke="#fff" stroke-miterlimit="10" stroke-width="1"/></g><g transform="translate(0.36 142.075)"><path d="M1.622,192.942,0,0,192.942,1.622" transform="translate(136.43 0) rotate(45)" fill="none" stroke="#fff" stroke-miterlimit="10" stroke-width="1"/><path d="M1.622,192.942,0,0,192.942,1.622" transform="translate(677.431 0) rotate(45)" fill="none" stroke="#fff" stroke-miterlimit="10" stroke-width="1"/><path d="M1.622,192.942,0,0,192.942,1.622" transform="translate(407.015 0) rotate(45)" fill="none" stroke="#fff" stroke-miterlimit="10" stroke-width="1"/><path d="M1.622,192.942,0,0,192.942,1.622" transform="translate(948.016 0) rotate(45)" fill="none" stroke="#fff" stroke-miterlimit="10" stroke-width="1"/></g><g transform="translate(0.36 71.398)"><path d="M1.622,192.942,0,0,192.942,1.622" transform="translate(136.43 0) rotate(45)" fill="none" stroke="#fff" stroke-miterlimit="10" stroke-width="1"/><path d="M1.622,192.942,0,0,192.942,1.622" transform="translate(677.431 0) rotate(45)" fill="none" stroke="#fff" stroke-miterlimit="10" stroke-width="1"/><path d="M1.622,192.942,0,0,192.942,1.622" transform="translate(407.015 0) rotate(45)" fill="none" stroke="#fff" stroke-miterlimit="10" stroke-width="1"/><path d="M1.622,192.942,0,0,192.942,1.622" transform="translate(948.016 0) rotate(45)" fill="none" stroke="#fff" stroke-miterlimit="10" stroke-width="1"/></g></g></g></g></svg>