<svg xmlns="http://www.w3.org/2000/svg" xmlns:xlink="http://www.w3.org/1999/xlink" width="628" height="135" viewBox="0 0 628 135"><defs><clipPath id="a"><rect width="628" height="135" rx="20" fill="#8ec641"/></clipPath></defs><g clip-path="url(#a)"><g transform="translate(0.632 22.11)" opacity="0.36"><g transform="translate(0 0)"><path d="M1.231,111.661,0,0,111.661,1.231" transform="translate(78.956 0) rotate(45)" fill="none" stroke="#fff" stroke-miterlimit="10" stroke-width="1"/><path d="M1.231,111.661,0,0,111.661,1.231" transform="translate(391.225 0) rotate(45)" fill="none" stroke="#fff" stroke-miterlimit="10" stroke-width="1"/><path d="M1.231,111.661,0,0,111.661,1.231" transform="translate(235.139 0) rotate(45)" fill="none" stroke="#fff" stroke-miterlimit="10" stroke-width="1"/><path d="M1.231,111.661,0,0,111.661,1.231" transform="translate(547.408 0) rotate(45)" fill="none" stroke="#fff" stroke-miterlimit="10" stroke-width="1"/><g transform="translate(0.208 367.575)"><path d="M.937,111.367,0,0,111.367.937" transform="translate(78.748 0) rotate(45)" fill="none" stroke="#fff" stroke-miterlimit="10" stroke-width="1"/><path d="M.937,111.367,0,0,111.367.937" transform="translate(391.017 0) rotate(45)" fill="none" stroke="#fff" stroke-miterlimit="10" stroke-width="1"/><path d="M.937,111.367,0,0,111.367.937" transform="translate(234.931 0) rotate(45)" fill="none" stroke="#fff" stroke-miterlimit="10" stroke-width="1"/><path d="M.937,111.367,0,0,111.367.937" transform="translate(547.2 0) rotate(45)" fill="none" stroke="#fff" stroke-miterlimit="10" stroke-width="1"/></g><g transform="translate(0.208 408.37)"><path d="M.937,111.367,0,0,111.367.937" transform="translate(78.748 0) rotate(45)" fill="none" stroke="#fff" stroke-miterlimit="10" stroke-width="1"/><path d="M.937,111.367,0,0,111.367.937" transform="translate(391.017 0) rotate(45)" fill="none" stroke="#fff" stroke-miterlimit="10" stroke-width="1"/><path d="M.937,111.367,0,0,111.367.937" transform="translate(234.931 0) rotate(45)" fill="none" stroke="#fff" stroke-miterlimit="10" stroke-width="1"/><path d="M.937,111.367,0,0,111.367.937" transform="translate(547.2 0) rotate(45)" fill="none" stroke="#fff" stroke-miterlimit="10" stroke-width="1"/></g><g transform="translate(0.208 449.166)"><path d="M.937,111.367,0,0,111.367.937" transform="translate(78.748 0) rotate(45)" fill="none" stroke="#fff" stroke-miterlimit="10" stroke-width="1"/><path d="M.937,111.367,0,0,111.367.937" transform="translate(391.017 0) rotate(45)" fill="none" stroke="#fff" stroke-miterlimit="10" stroke-width="1"/><path d="M.937,111.367,0,0,111.367.937" transform="translate(234.931 0) rotate(45)" fill="none" stroke="#fff" stroke-miterlimit="10" stroke-width="1"/><path d="M.937,111.367,0,0,111.367.937" transform="translate(547.2 0) rotate(45)" fill="none" stroke="#fff" stroke-miterlimit="10" stroke-width="1"/></g><g transform="translate(0.208 489.961)"><path d="M.937,111.367,0,0,111.367.937" transform="translate(78.748 0) rotate(45)" fill="none" stroke="#fff" stroke-miterlimit="10" stroke-width="1"/><path d="M.937,111.367,0,0,111.367.937" transform="translate(391.017 0) rotate(45)" fill="none" stroke="#fff" stroke-miterlimit="10" stroke-width="1"/><path d="M.937,111.367,0,0,111.367.937" transform="translate(234.931 0) rotate(45)" fill="none" stroke="#fff" stroke-miterlimit="10" stroke-width="1"/><path d="M.937,111.367,0,0,111.367.937" transform="translate(547.2 0) rotate(45)" fill="none" stroke="#fff" stroke-miterlimit="10" stroke-width="1"/></g><g transform="translate(0.208 530.756)"><path d="M.937,111.367,0,0,111.367.937" transform="translate(78.748 0) rotate(45)" fill="none" stroke="#fff" stroke-miterlimit="10" stroke-width="1"/><path d="M.937,111.367,0,0,111.367.937" transform="translate(391.017 0) rotate(45)" fill="none" stroke="#fff" stroke-miterlimit="10" stroke-width="1"/><path d="M.937,111.367,0,0,111.367.937" transform="translate(234.931 0) rotate(45)" fill="none" stroke="#fff" stroke-miterlimit="10" stroke-width="1"/><path d="M.937,111.367,0,0,111.367.937" transform="translate(547.2 0) rotate(45)" fill="none" stroke="#fff" stroke-miterlimit="10" stroke-width="1"/></g><g transform="translate(0.208 571.552)"><path d="M.937,111.367,0,0,111.367.937" transform="translate(78.748 0) rotate(45)" fill="none" stroke="#fff" stroke-miterlimit="10" stroke-width="1"/><path d="M.937,111.367,0,0,111.367.937" transform="translate(391.017 0) rotate(45)" fill="none" stroke="#fff" stroke-miterlimit="10" stroke-width="1"/><path d="M.937,111.367,0,0,111.367.937" transform="translate(234.931 0) rotate(45)" fill="none" stroke="#fff" stroke-miterlimit="10" stroke-width="1"/><path d="M.937,111.367,0,0,111.367.937" transform="translate(547.2 0) rotate(45)" fill="none" stroke="#fff" stroke-miterlimit="10" stroke-width="1"/></g><g transform="translate(0.208 612.347)"><path d="M.937,111.367,0,0,111.367.937" transform="translate(78.748 0) rotate(45)" fill="none" stroke="#fff" stroke-miterlimit="10" stroke-width="1"/><path d="M.937,111.367,0,0,111.367.937" transform="translate(391.017 0) rotate(45)" fill="none" stroke="#fff" stroke-miterlimit="10" stroke-width="1"/><path d="M.937,111.367,0,0,111.367.937" transform="translate(234.931 0) rotate(45)" fill="none" stroke="#fff" stroke-miterlimit="10" stroke-width="1"/><path d="M.937,111.367,0,0,111.367.937" transform="translate(547.2 0) rotate(45)" fill="none" stroke="#fff" stroke-miterlimit="10" stroke-width="1"/></g><g transform="translate(0.208 653.143)"><path d="M.937,111.367,0,0,111.367.937" transform="translate(78.748 0) rotate(45)" fill="none" stroke="#fff" stroke-miterlimit="10" stroke-width="1"/><path d="M.937,111.367,0,0,111.367.937" transform="translate(391.017 0) rotate(45)" fill="none" stroke="#fff" stroke-miterlimit="10" stroke-width="1"/><path d="M.937,111.367,0,0,111.367.937" transform="translate(234.931 0) rotate(45)" fill="none" stroke="#fff" stroke-miterlimit="10" stroke-width="1"/><path d="M.937,111.367,0,0,111.367.937" transform="translate(547.2 0) rotate(45)" fill="none" stroke="#fff" stroke-miterlimit="10" stroke-width="1"/></g><g transform="translate(0.208 693.938)"><path d="M.937,111.367,0,0,111.367.937" transform="translate(78.748 0) rotate(45)" fill="none" stroke="#fff" stroke-miterlimit="10" stroke-width="1"/><path d="M.937,111.367,0,0,111.367.937" transform="translate(391.017 0) rotate(45)" fill="none" stroke="#fff" stroke-miterlimit="10" stroke-width="1"/><path d="M.937,111.367,0,0,111.367.937" transform="translate(234.931 0) rotate(45)" fill="none" stroke="#fff" stroke-miterlimit="10" stroke-width="1"/><path d="M.937,111.367,0,0,111.367.937" transform="translate(547.2 0) rotate(45)" fill="none" stroke="#fff" stroke-miterlimit="10" stroke-width="1"/></g><g transform="translate(0.208 326.779)"><path d="M.937,111.367,0,0,111.367.937" transform="translate(78.748 0) rotate(45)" fill="none" stroke="#fff" stroke-miterlimit="10" stroke-width="1"/><path d="M.937,111.367,0,0,111.367.937" transform="translate(391.017 0) rotate(45)" fill="none" stroke="#fff" stroke-miterlimit="10" stroke-width="1"/><path d="M.937,111.367,0,0,111.367.937" transform="translate(234.931 0) rotate(45)" fill="none" stroke="#fff" stroke-miterlimit="10" stroke-width="1"/><path d="M.937,111.367,0,0,111.367.937" transform="translate(547.2 0) rotate(45)" fill="none" stroke="#fff" stroke-miterlimit="10" stroke-width="1"/></g><g transform="translate(0.208 285.984)"><path d="M.937,111.367,0,0,111.367.937" transform="translate(78.748 0) rotate(45)" fill="none" stroke="#fff" stroke-miterlimit="10" stroke-width="1"/><path d="M.937,111.367,0,0,111.367.937" transform="translate(391.017 0) rotate(45)" fill="none" stroke="#fff" stroke-miterlimit="10" stroke-width="1"/><path d="M.937,111.367,0,0,111.367.937" transform="translate(234.931 0) rotate(45)" fill="none" stroke="#fff" stroke-miterlimit="10" stroke-width="1"/><path d="M.937,111.367,0,0,111.367.937" transform="translate(547.2 0) rotate(45)" fill="none" stroke="#fff" stroke-miterlimit="10" stroke-width="1"/></g><g transform="translate(0.208 245.188)"><path d="M.937,111.367,0,0,111.367.937" transform="translate(78.748 0) rotate(45)" fill="none" stroke="#fff" stroke-miterlimit="10" stroke-width="1"/><path d="M.937,111.367,0,0,111.367.937" transform="translate(391.017 0) rotate(45)" fill="none" stroke="#fff" stroke-miterlimit="10" stroke-width="1"/><path d="M.937,111.367,0,0,111.367.937" transform="translate(234.931 0) rotate(45)" fill="none" stroke="#fff" stroke-miterlimit="10" stroke-width="1"/><path d="M.937,111.367,0,0,111.367.937" transform="translate(547.2 0) rotate(45)" fill="none" stroke="#fff" stroke-miterlimit="10" stroke-width="1"/></g><g transform="translate(0.208 204.393)"><path d="M.937,111.367,0,0,111.367.937" transform="translate(78.748 0) rotate(45)" fill="none" stroke="#fff" stroke-miterlimit="10" stroke-width="1"/><path d="M.937,111.367,0,0,111.367.937" transform="translate(391.017 0) rotate(45)" fill="none" stroke="#fff" stroke-miterlimit="10" stroke-width="1"/><path d="M.937,111.367,0,0,111.367.937" transform="translate(234.931 0) rotate(45)" fill="none" stroke="#fff" stroke-miterlimit="10" stroke-width="1"/><path d="M.937,111.367,0,0,111.367.937" transform="translate(547.2 0) rotate(45)" fill="none" stroke="#fff" stroke-miterlimit="10" stroke-width="1"/></g><g transform="translate(0.208 163.598)"><path d="M.937,111.367,0,0,111.367.937" transform="translate(78.748 0) rotate(45)" fill="none" stroke="#fff" stroke-miterlimit="10" stroke-width="1"/><path d="M.937,111.367,0,0,111.367.937" transform="translate(391.017 0) rotate(45)" fill="none" stroke="#fff" stroke-miterlimit="10" stroke-width="1"/><path d="M.937,111.367,0,0,111.367.937" transform="translate(234.931 0) rotate(45)" fill="none" stroke="#fff" stroke-miterlimit="10" stroke-width="1"/><path d="M.937,111.367,0,0,111.367.937" transform="translate(547.2 0) rotate(45)" fill="none" stroke="#fff" stroke-miterlimit="10" stroke-width="1"/></g><g transform="translate(0.208 122.802)"><path d="M.937,111.367,0,0,111.367.937" transform="translate(78.748 0) rotate(45)" fill="none" stroke="#fff" stroke-miterlimit="10" stroke-width="1"/><path d="M.937,111.367,0,0,111.367.937" transform="translate(391.017 0) rotate(45)" fill="none" stroke="#fff" stroke-miterlimit="10" stroke-width="1"/><path d="M.937,111.367,0,0,111.367.937" transform="translate(234.931 0) rotate(45)" fill="none" stroke="#fff" stroke-miterlimit="10" stroke-width="1"/><path d="M.937,111.367,0,0,111.367.937" transform="translate(547.2 0) rotate(45)" fill="none" stroke="#fff" stroke-miterlimit="10" stroke-width="1"/></g><g transform="translate(0.208 82.007)"><path d="M.937,111.367,0,0,111.367.937" transform="translate(78.748 0) rotate(45)" fill="none" stroke="#fff" stroke-miterlimit="10" stroke-width="1"/><path d="M.937,111.367,0,0,111.367.937" transform="translate(391.017 0) rotate(45)" fill="none" stroke="#fff" stroke-miterlimit="10" stroke-width="1"/><path d="M.937,111.367,0,0,111.367.937" transform="translate(234.931 0) rotate(45)" fill="none" stroke="#fff" stroke-miterlimit="10" stroke-width="1"/><path d="M.937,111.367,0,0,111.367.937" transform="translate(547.2 0) rotate(45)" fill="none" stroke="#fff" stroke-miterlimit="10" stroke-width="1"/></g><g transform="translate(0.208 41.211)"><path d="M.937,111.367,0,0,111.367.937" transform="translate(78.748 0) rotate(45)" fill="none" stroke="#fff" stroke-miterlimit="10" stroke-width="1"/><path d="M.937,111.367,0,0,111.367.937" transform="translate(391.017 0) rotate(45)" fill="none" stroke="#fff" stroke-miterlimit="10" stroke-width="1"/><path d="M.937,111.367,0,0,111.367.937" transform="translate(234.931 0) rotate(45)" fill="none" stroke="#fff" stroke-miterlimit="10" stroke-width="1"/><path d="M.937,111.367,0,0,111.367.937" transform="translate(547.2 0) rotate(45)" fill="none" stroke="#fff" stroke-miterlimit="10" stroke-width="1"/></g></g></g></g></svg>