<svg xmlns="http://www.w3.org/2000/svg" width="50" height="50" viewBox="0 0 50 50"><g transform="translate(-18633 -6474)"><circle cx="25" cy="25" r="25" transform="translate(18633 6474)" fill="#25d366"/><g transform="translate(18645.75 6486.942)"><path d="M20.753,3.5A11.953,11.953,0,0,0,1.945,17.923L.25,24.115l6.335-1.662a11.937,11.937,0,0,0,5.71,1.455H12.3A11.955,11.955,0,0,0,20.753,3.5ZM12.3,21.89h0a9.92,9.92,0,0,1-5.055-1.384l-.363-.215-3.759.986,1-3.665-.236-.376A9.932,9.932,0,1,1,12.3,21.89Zm5.448-7.439c-.3-.15-1.767-.872-2.04-.971s-.473-.149-.672.15-.771.971-.946,1.171-.348.224-.647.075a8.155,8.155,0,0,1-2.4-1.482,9.007,9.007,0,0,1-1.661-2.068c-.174-.3,0-.445.131-.609a8.446,8.446,0,0,0,.746-1.021.549.549,0,0,0-.025-.523c-.074-.149-.672-1.619-.92-2.217-.243-.582-.489-.5-.672-.513s-.373-.01-.572-.01a1.1,1.1,0,0,0-.8.374A3.349,3.349,0,0,0,6.228,9.3a5.808,5.808,0,0,0,1.219,3.089,13.309,13.309,0,0,0,5.1,4.508,17.091,17.091,0,0,0,1.7.629,4.093,4.093,0,0,0,1.881.118,3.076,3.076,0,0,0,2.015-1.42,2.5,2.5,0,0,0,.174-1.42c-.074-.125-.274-.2-.572-.349Zm0,0" fill="#fff" fill-rule="evenodd"/></g></g></svg>